<?xml version="1.0" ?><!DOCTYPE svg  PUBLIC '-//W3C//DTD SVG 1.1//EN'  'http://www.w3.org/Graphics/SVG/1.1/DTD/svg11.dtd'><svg enable-background="new 0 0 32 32" height="32px" version="1.1" viewBox="0 0 32 32" width="32px" xml:space="preserve" xmlns="http://www.w3.org/2000/svg" xmlns:xlink="http://www.w3.org/1999/xlink"><g id="computer_website_check_result"><g><g><g><g><path d="M30.5,22V3.5c0-0.553-0.447-1-1-1h-27c-0.553,0-1,0.447-1,1V22H30.5z" fill="#FFFFFF"/></g></g><g><g id="response_time_5_"><path d="M2,6V3.5C2,2.947,1.947,3,2.5,3h27C30.053,3,30,2.947,30,3.5V6H2z" fill="#A9E4FF"/><rect fill="#FFFFFF" height="1" width="28" x="2" y="3"/><circle cx="7.5" cy="4.5" fill="#455A64" r="0.5"/><circle cx="5.5" cy="4.5" fill="#455A64" r="0.5"/><circle cx="3.5" cy="4.5" fill="#455A64" r="0.5"/><rect fill="#FFFFFF" height="1" width="28" x="2" y="7"/><path d="M30.5,7h-29C1.224,7,1,6.776,1,6.5S1.224,6,1.5,6h29C30.776,6,31,6.224,31,6.5S30.776,7,30.5,7z" fill="#455A64"/></g></g><path d="M1.5,22C1.224,22,1,21.776,1,21.5v-18C1,2.673,1.673,2,2.5,2h27C30.327,2,31,2.673,31,3.5v9     c0,0.276-0.224,0.5-0.5,0.5S30,12.776,30,12.5v-9C30,3.225,29.776,3,29.5,3h-27C2.224,3,2,3.225,2,3.5v18     C2,21.776,1.776,22,1.5,22z" fill="#455A64"/><g><g><rect fill="#F2F4F5" height="12" width="28" x="2" y="8"/></g></g></g><path d="M13.5,25.5v3c0,1.104-0.896,2-2,2h-1H22h-1.5c-1.104,0-2-0.896-2-2v-3H13.5z" fill="#FFFFFF"/><rect fill="#ECEFF1" height="1" width="5" x="13.5" y="26"/><path d="M22,31H10.5c-0.276,0-0.5-0.224-0.5-0.5s0.224-0.5,0.5-0.5h1c0.827,0,1.5-0.673,1.5-1.5v-1    c0-0.276,0.224-0.5,0.5-0.5s0.5,0.224,0.5,0.5v1c0,0.563-0.187,1.082-0.501,1.5h5.002C18.187,29.582,18,29.063,18,28.5v-3    c0-0.276,0.224-0.5,0.5-0.5s0.5,0.224,0.5,0.5v3c0,0.827,0.673,1.5,1.5,1.5H22c0.276,0,0.5,0.224,0.5,0.5S22.276,31,22,31z" fill="#455A64"/><path d="M29.5,25.5h-27c-0.553,0-1-0.447-1-1v-3h29v3C30.5,25.053,30.053,25.5,29.5,25.5z" fill="#FFFFFF"/><path d="M29.5,25.5h-27c-0.553,0-1-0.447-1-1V23h29v1.5C30.5,25.053,30.053,25.5,29.5,25.5z" fill="#ECEFF1"/><path d="M18.5,26h-16C1.673,26,1,25.327,1,24.5v-3C1,21.224,1.224,21,1.5,21h14c0.276,0,0.5,0.224,0.5,0.5    S15.776,22,15.5,22H2v2.5C2,24.775,2.224,25,2.5,25h16c0.276,0,0.5,0.224,0.5,0.5S18.776,26,18.5,26z" fill="#455A64"/></g><g><g><path d="M18.5,14h-1c-0.276,0-0.5-0.224-0.5-0.5s0.224-0.5,0.5-0.5h1c0.276,0,0.5,0.224,0.5,0.5     S18.776,14,18.5,14z" fill="#455A64"/></g><g><path d="M27.5,10h-10C17.224,10,17,9.776,17,9.5S17.224,9,17.5,9h10C27.776,9,28,9.224,28,9.5S27.776,10,27.5,10z     " fill="#455A64"/></g><g><path d="M27.5,12h-10c-0.276,0-0.5-0.224-0.5-0.5s0.224-0.5,0.5-0.5h10c0.276,0,0.5,0.224,0.5,0.5     S27.776,12,27.5,12z" fill="#455A64"/></g></g><g><g><path d="M7.5,14h-3C4.224,14,4,13.776,4,13.5S4.224,13,4.5,13h3C7.776,13,8,13.224,8,13.5S7.776,14,7.5,14z" fill="#455A64"/></g><g><path d="M14.5,10h-10C4.224,10,4,9.776,4,9.5S4.224,9,4.5,9h10C14.776,9,15,9.224,15,9.5S14.776,10,14.5,10z" fill="#455A64"/></g><g><path d="M14.5,12h-10C4.224,12,4,11.776,4,11.5S4.224,11,4.5,11h10c0.276,0,0.5,0.224,0.5,0.5S14.776,12,14.5,12z     " fill="#455A64"/></g></g><rect fill="#80D8FF" height="5" width="11" x="17" y="15"/><rect fill="#80D8FF" height="5" width="11" x="4" y="15"/><g><g><g><g><circle cx="24" cy="20" fill="#FFFFFF" r="6.5"/></g></g></g><path d="M25,14.5c-3.589,0-6.5,2.911-6.5,6.5c0,1.54,0.538,2.952,1.434,4.065C21.047,25.961,22.46,26.5,24,26.5    c3.59,0,6.5-2.91,6.5-6.5c0-1.54-0.538-2.952-1.434-4.066C27.953,15.039,26.54,14.5,25,14.5z" fill="#65F0CD"/><g><g><g><path d="M24,27c-3.86,0-7-3.141-7-7s3.14-7,7-7c1.352,0,2.663,0.386,3.792,1.115       c0.232,0.15,0.298,0.459,0.148,0.691c-0.15,0.23-0.458,0.3-0.691,0.148C26.283,14.33,25.159,14,24,14c-3.309,0-6,2.691-6,6       s2.691,6,6,6s6-2.691,6-6c0-0.642-0.101-1.273-0.299-1.877c-0.086-0.263,0.057-0.545,0.319-0.631       c0.262-0.088,0.545,0.057,0.631,0.318C30.882,18.516,31,19.252,31,20C31,23.859,27.86,27,24,27z" fill="#455A64"/></g></g></g><g><g><g><path d="M23.5,22.699c-0.004,0-0.008,0-0.012,0c-0.145-0.004-0.28-0.069-0.373-0.18l-2.5-3       c-0.176-0.213-0.147-0.528,0.064-0.705c0.213-0.176,0.527-0.147,0.705,0.064l2.133,2.561l6.215-6.865       c0.188-0.204,0.504-0.216,0.706-0.031c0.203,0.187,0.217,0.503,0.03,0.707l-6.6,7.287C23.773,22.641,23.641,22.699,23.5,22.699       z" fill="#455A64"/></g></g></g></g></g></svg>