<?xml version="1.0" ?><svg class="svg-icon" style="width: 1em; height: 1em;vertical-align: middle;fill: currentColor;overflow: hidden;" version="1.1" viewBox="0 0 1024 1024" xmlns="http://www.w3.org/2000/svg"><path d="M63.53 714.224V1024h154.51V617.924l-154.51 96.3z m139.612 294.876H78.43V722.494l124.71-77.728V1009.1z" fill="#4A555F"/><path d="M95.81 732.146v259.572h89.948V676.084z" fill="#FFD452"/><path d="M332.226 546.71l-24.338 15.19V1024h154.468V546.71h-130.13z m115.23 462.39h-124.666V570.166l13.706-8.556h110.96V1009.1z" fill="#4A555F"/><path d="M341.472 578.996l-1.3 0.812v411.91h89.9V578.996z" fill="#DFDFDF"/><path d="M552.25 546.71V1024h154.468V546.71h-154.468z m139.568 462.39h-124.666V561.61h124.666V1009.1z" fill="#4A555F"/><path d="M584.534 578.996h89.896V991.72h-89.896z" fill="#F58E6F"/><path d="M935.142 379.94l-138.578 104.502V1024h154.462V396.846l-15.884-16.906z m0.984 629.16h-124.662V491.868l121.97-91.984 2.692 2.864V1009.1z" fill="#4A555F"/><path d="M828.848 500.53v491.188h89.896v-558.98z" fill="#71CCE0"/><path d="M805.57 170.726l52.044 60.612-199.842 148.486H313.368L63.55 522.206v129.624l265.82-165.786h381.306l225.578-170.134 47.684 50.69 10.812-172.336-189.18-23.538z m165.648 160.608l-33.268-35.368-232.26 175.178H325.102L78.45 624.98v-94.116l238.868-136.14H662.7l216.634-160.962-37.338-43.49 137.006 17.052-7.784 124.01z" fill="#4A555F"/><path d="M884.486 213.078l20.192 23.512-236.224 175.516H321.92l-226.086 128.86v52.682l224.288-139.886h379.748l240.06-181.062 16.452 17.492 4.244-67.64z" fill="#F58E6F"/><path d="M29.254 1009.1H981.9V1024H29.254z" fill="#4A555F"/><path d="M491.864 150.1h-8.344c-15.478 0-28.072-12.594-28.072-28.072v-3.886c0-17.778 14.464-32.244 32.244-32.244s32.242 14.462 32.242 32.24h39.766c0-32.24-21.808-60.39-52.126-69.132V7.45h-39.766v41.558c-30.318 8.742-52.126 36.894-52.126 69.134v3.886c0 37.404 30.43 67.836 67.836 67.836h8.35c7.496 0 14.54 2.918 19.844 8.222a27.87 27.87 0 0 1 8.222 19.85c0 17.778-14.462 32.24-32.242 32.24s-32.244-14.462-32.244-32.24h-39.766c0 32.24 21.808 60.39 52.126 69.132v41.56h39.766v-41.56c30.318-8.744 52.126-36.892 52.126-69.132 0-18.118-7.056-35.156-19.872-47.968-12.808-12.812-29.84-19.868-47.964-19.868z" fill="#FFD452"/><path d="M567.15 125.588v-7.45c0-33.258-21.166-63.132-52.126-74.524V0H460.36v43.614c-30.96 11.394-52.126 41.268-52.126 74.53v3.884c0 41.514 33.772 75.286 75.286 75.286h8.348c5.504 0 10.686 2.146 14.58 6.042a20.468 20.468 0 0 1 6.038 14.58c0 13.668-11.122 24.79-24.794 24.79-13.674 0-24.794-11.122-24.794-24.79v-7.45h-54.662v7.45c0 33.258 21.166 63.132 52.126 74.528v43.616h54.664v-43.616c30.958-11.396 52.126-41.27 52.126-74.528 0-20.11-7.834-39.016-22.054-53.234-14.216-14.222-33.122-22.052-53.232-22.052h-8.342c-11.374 0-20.624-9.25-20.624-20.622v-3.884c0-13.674 11.122-24.794 24.794-24.794s24.794 11.122 24.794 24.79v7.45h54.662z m-79.458-47.14c-21.89 0-39.694 17.808-39.694 39.696v3.884c0 19.586 15.938 35.52 35.524 35.52h8.342c16.132 0 31.294 6.282 42.696 17.686 11.408 11.406 17.688 26.57 17.688 42.7 0 28.552-19.222 54.038-46.742 61.974l-5.384 1.554v39.714H475.26v-39.714l-5.384-1.554c-25.106-7.24-43.298-29.076-46.306-54.524h25.128c3.498 18.336 19.648 32.24 38.992 32.24 21.89 0 39.694-17.806 39.694-39.69 0-9.492-3.696-18.412-10.404-25.12a35.3 35.3 0 0 0-25.114-10.402h-8.348c-33.298 0-60.386-27.088-60.386-60.386v-3.884c0-28.556 19.222-54.042 46.742-61.978l5.384-1.554V14.9h24.862v39.712l5.384 1.554c25.104 7.236 43.298 29.072 46.306 54.522H526.68c-3.492-18.336-19.644-32.24-38.988-32.24zM275.342 178.02h64.83v14.9h-64.83zM634.452 173.05h64.834v14.9h-64.834zM333.91 329.352l45.842-45.844 10.536 10.536-45.844 45.842zM584.336 71.936l45.842-45.84 10.534 10.532-45.84 45.842zM333.912 36.614l10.536-10.534 45.842 45.842-10.534 10.534zM584.328 294.072l10.534-10.536 45.84 45.842-10.532 10.534z" fill="#4A555F"/></svg>