<?xml version="1.0" ?><svg viewBox="0 0 64 64" xmlns="http://www.w3.org/2000/svg"><defs><style>.cls-1{fill:#4c241d;}.cls-2{fill:#dbeffc;}.cls-3{fill:#bf7e68;}.cls-3,.cls-4,.cls-5,.cls-6,.cls-7,.cls-8,.cls-9{stroke:#4c241d;stroke-linejoin:round;stroke-width:2px;}.cls-3,.cls-4,.cls-5,.cls-6,.cls-7,.cls-8{stroke-linecap:round;}.cls-4,.cls-9{fill:none;}.cls-5{fill:#ffded5;}.cls-6{fill:#6b4f5b;}.cls-7{fill:#fff;}.cls-8{fill:#ffce56;}</style></defs><g id="support"><circle class="cls-1" cx="55.3829" cy="15.3776" r="1.0691"/><circle class="cls-2" cx="27" cy="28" r="23"/><path class="cls-3" d="M20,7h8a8,8,0,0,1,8,8V45a0,0,0,0,1,0,0H12a0,0,0,0,1,0,0V15A8,8,0,0,1,20,7Z"/><line class="cls-4" x1="47" x2="50" y1="20" y2="23"/><path class="cls-5" d="M8.9865,58.6883l1.1721-11.1944A7.5112,7.5112,0,0,1,17.661,41H30.312a7.5112,7.5112,0,0,1,7.5024,6.4939l1.1721,11.1944"/><path class="cls-6" d="M33,59V41.4844A7.6744,7.6744,0,0,0,30.312,41H17.661A7.674,7.674,0,0,0,15,41.4755V59"/><line class="cls-4" x1="50" x2="47" y1="20" y2="23"/><circle class="cls-4" cx="45" cy="10" r="2"/><path class="cls-5" d="M28,41V35H20v6H18a5,5,0,0,0,5,5h2a5,5,0,0,0,5-5Z"/><path class="cls-5" d="M34,21.0051q.0915.0023.1811.0124A2.0473,2.0473,0,0,1,36,23.0507v.39a3.5477,3.5477,0,0,1-2.5693,3.4021l-.625,4.2183C32.2173,35.0335,26.2222,38,24,38s-8.2172-2.9665-8.8057-6.9386l-.625-4.2183A3.5477,3.5477,0,0,1,12,23.441v-.39a2.0478,2.0478,0,0,1,2-2.0456l.6141-1.8439A6.0835,6.0835,0,0,1,20.3859,15h7.2282a6.0835,6.0835,0,0,1,5.7718,4.1612Z"/><circle class="cls-1" cx="29" cy="23" r="1"/><circle class="cls-1" cx="19" cy="23" r="1"/><line class="cls-4" x1="19" x2="17" y1="20" y2="20"/><line class="cls-4" x1="31" x2="29" y1="20" y2="20"/><line class="cls-4" x1="22" x2="26" y1="29" y2="29"/><rect class="cls-7" height="19" width="26" x="33" y="40"/><path class="cls-8" d="M34.2063,35H57.7937A1.2063,1.2063,0,0,1,59,36.2063V40a0,0,0,0,1,0,0H33a0,0,0,0,1,0,0V36.2063A1.2063,1.2063,0,0,1,34.2063,35Z"/><line class="cls-4" x1="41" x2="41" y1="36" y2="34"/><line class="cls-4" x1="51" x2="51" y1="36" y2="34"/><polyline class="cls-4" points="37 52 37 46 39 48 41 46 41 52"/><polyline class="cls-4" points="51 52 51 46 55 52 55 46"/><rect class="cls-4" height="6" rx="1.2508" width="4" x="44" y="46"/><rect class="cls-4" height="2" rx="1" width="4" x="22" y="32"/><line class="cls-9" x1="23" x2="12" y1="33" y2="33"/><path class="cls-6" d="M10.8189,18H14a0,0,0,0,1,0,0v9a0,0,0,0,1,0,0H10.8189A1.8189,1.8189,0,0,1,9,25.1811V19.8189A1.8189,1.8189,0,0,1,10.8189,18Z"/><path class="cls-6" d="M35.8189,18H39a0,0,0,0,1,0,0v9a0,0,0,0,1,0,0H35.8189A1.8189,1.8189,0,0,1,34,25.1811V19.8189A1.8189,1.8189,0,0,1,35.8189,18Z" transform="translate(73 45) rotate(-180)"/></g></svg>