<?xml version="1.0" ?><svg style="enable-background:new 0 0 512 512;" version="1.1" viewBox="0 0 512 512" xml:space="preserve" xmlns="http://www.w3.org/2000/svg" xmlns:xlink="http://www.w3.org/1999/xlink"><style type="text/css">
	.st0{display:none;}
	.st1{fill:#DEFFFE;}
	.st2{fill:#004358;}
	.st3{fill:#04BFBF;}
	.st4{fill:#BEDB39;}
</style><g id="Layer_1"/><g class="st0" id="Layer_3"/><g class="st0" id="Layer_5"/><g id="Layer_4"><g><path class="st1" d="M479.26,265.978l-19.174,119.595H272.164l-5.383,19.526v29.13H479.26v-29.13l23.087-131.692    C502.346,273.407,489.825,260.379,479.26,265.978z"/><g><g><path class="st2" d="M300.238,207.823v10.969c0,4.066,2.262,7.717,5.903,9.526c1.513,0.753,3.136,1.123,4.749,1.123      c2.267,0,4.515-0.732,6.41-2.167l19.503-14.762h124.511c11.58,0,21-9.421,21-21V94.404c0-11.579-9.42-21-21-21H313.447      c-11.58,0-21,9.421-21,21v97.108C292.447,197.951,295.313,203.861,300.238,207.823z"/><path class="st2" d="M503.252,266.263c-2.472-2.873-6.064-4.521-9.855-4.521H295.744c-6.481,0-11.887,4.651-12.854,11.06      l-19.46,128.872h-20.042l-0.844-4.436c-1.803-9.246-5.202-17.852-9.873-25.56c35.204-29.379,28.252-53.719,20.906-79.441      c-2.892-10.126-5.838-20.479-6.801-31.984c2.289-6.042,3.55-12.585,3.55-19.42v-15.348c1.154-5.868,1.792-12.184,1.875-18.805      c0.035-2.761-2.175-5.027-4.937-5.062c-0.021,0-0.043,0-0.064,0c-1.351,0-2.577,0.54-3.479,1.415      c-0.651-0.982-1.344-1.938-2.084-2.86c-1.728-2.152-4.875-2.498-7.029-0.771c-2.154,1.728-2.5,4.875-0.772,7.029      c4.245,5.292,6.489,11.683,6.489,18.48c0,15.677-12.269,28.537-27.708,29.497v-47.288c0-2.762-2.239-5-5-5s-5,2.238-5,5v57.006      c0,7.513-1.211,14.745-3.424,21.53c-1.276,0.109-2.564,0.177-3.868,0.177h-19.761c-2.761,0-5,2.238-5,5s2.239,5,5,5h19.381      c-11.555,22.483-34.976,37.91-61.946,37.91c-38.387,0-69.618-31.23-69.618-69.617V199.2c0-2.762-2.239-5-5-5s-5,2.238-5,5      v55.207c-15.44-0.96-27.709-13.819-27.709-29.497c0-7.471,2.811-14.607,7.916-20.098c1.88-2.021,1.766-5.186-0.257-7.066      c-2.021-1.879-5.186-1.766-7.066,0.258c-1.46,1.57-2.771,3.247-3.944,5.002c-0.905-0.899-2.15-1.455-3.523-1.455      c-0.02,0-0.041,0-0.061,0c-2.761,0.033-4.973,2.299-4.939,5.061c0.08,6.679,0.723,13.053,1.893,18.97      c0.085,5.073,1.125,9.917,2.956,14.357c2.901,20.307-1.731,36.571-6.223,52.298c-7.347,25.722-14.298,50.062,20.909,79.443      c-4.673,7.713-8.075,16.326-9.879,25.58l-6.83,35.884c-0.279,1.463,0.11,2.975,1.06,4.122c0.95,1.148,2.362,1.812,3.852,1.812      H64.14v-22.241c0-2.762,2.239-5,5-5s5,2.238,5,5v22.241h399.252c7.168,0,13-5.832,13-13c0-2.762-2.239-5-5-5s-5,2.238-5,5      c0,1.654-1.346,3-3,3H272.73v-8.703c0-2.762-2.239-5-5-5s-5,2.238-5,5v8.703h-78.165c-1.654,0-3-1.346-3-3v-11.405      c0-1.654,1.346-3,3-3h297c2.473,0,4.575-1.808,4.944-4.254l19.742-130.736C506.817,272.935,505.724,269.137,503.252,266.263z       M212.61,264.424c9.1-0.42,17.395-3.941,23.879-9.514c0.03,1.242,0.08,2.471,0.153,3.685      c-4.95,11.471-14.524,20.493-26.378,24.678C211.763,277.228,212.586,270.92,212.61,264.424z M206.497,294.689      c13.026-2.698,24.372-10.023,32.259-20.165c1.446,7.256,3.37,14.033,5.205,20.459c7.181,25.142,12.444,43.594-17.031,68.459      c-13.402-16.821-33.474-27.856-55.768-29.476C186.953,325.298,199.507,311.438,206.497,294.689z M39.073,363.444      c-29.478-24.866-24.215-43.319-17.033-68.462c3.391-11.874,7.104-24.922,7.471-40.054c6.486,5.566,14.784,9.076,23.88,9.496      c0.111,29.949,16.845,56.047,41.433,69.543C72.537,335.591,52.472,346.624,39.073,363.444z M496.363,275.189l-19.1,126.483      H273.542l19.235-127.38c0.223-1.479,1.471-2.552,2.967-2.552h197.653c1.198,0,1.939,0.654,2.274,1.044      C496.006,273.175,496.542,274.005,496.363,275.189z"/></g><g><g><g><path class="st4" d="M442.573,129.1H332.188c-2.761,0-5-2.238-5-5s2.239-5,5-5h110.384c2.761,0,5,2.238,5,5        S445.334,129.1,442.573,129.1z"/></g><g><path class="st4" d="M392.58,166.817h-60.392c-2.761,0-5-2.238-5-5s2.239-5,5-5h60.392c2.761,0,5,2.238,5,5        S395.341,166.817,392.58,166.817z"/></g><g><path class="st4" d="M442.573,166.817h-19.754c-2.761,0-5-2.238-5-5s2.239-5,5-5h19.754c2.761,0,5,2.238,5,5        S445.334,166.817,442.573,166.817z"/></g></g><g><path class="st3" d="M384.564,357.485c-5.673,0-10.679-2.246-14.093-6.324c-3.419-4.084-4.802-9.673-3.792-15.333       c1.992-11.158,12.322-19.899,23.517-19.899c5.674,0,10.679,2.246,14.093,6.323c3.419,4.084,4.802,9.673,3.792,15.333v0.001       C406.09,348.744,395.76,357.485,384.564,357.485z M390.197,325.929c-6.283,0-12.544,5.338-13.672,11.657       c-0.496,2.778,0.077,5.32,1.614,7.155c1.481,1.77,3.763,2.744,6.426,2.744c6.284,0,12.545-5.338,13.672-11.657       c0.496-2.779-0.077-5.32-1.614-7.156C395.142,326.903,392.859,325.929,390.197,325.929z M403.159,336.707h0.01H403.159z"/></g></g><g><path class="st3" d="M163.304,308.093h-7.826c-9.518,0-17.261-7.743-17.261-17.261s7.743-17.261,17.261-17.261h7.826      c9.518,0,17.261,7.743,17.261,17.261S172.822,308.093,163.304,308.093z M155.478,283.571c-4.003,0-7.261,3.257-7.261,7.261      s3.257,7.261,7.261,7.261h7.826c4.004,0,7.261-3.257,7.261-7.261s-3.257-7.261-7.261-7.261H155.478z"/></g><g><path class="st4" d="M133,391.41c-24.645,0-46.288-16.617-52.633-40.41c-0.711-2.668,0.875-5.407,3.542-6.119      c2.672-0.709,5.408,0.874,6.12,3.543c5.18,19.422,22.85,32.986,42.971,32.986s37.792-13.564,42.971-32.986      c0.711-2.668,3.446-4.255,6.12-3.543c2.668,0.712,4.254,3.451,3.542,6.119C179.288,374.793,157.645,391.41,133,391.41z"/></g><path class="st4" d="M222.678,119.911C207.384,100.81,179.411,78.039,133,78.039c-46.421,0-74.397,22.779-89.691,41.889     c-17.83,22.276-28.565,51.972-29.455,81.473c-0.041,1.339,0.462,2.639,1.389,3.607c0.927,0.968,2.207,1.523,3.547,1.543     c0.806,0.012,19.971,0.245,39.921-2.35c22.531-2.93,37.173-8.141,44.369-15.838c18.411,19.598,51.151,24.851,80.997,24.85     c30.726-0.001,58.381-5.574,64.122-6.809c2.36-0.508,4.021-2.628,3.947-5.041C251.247,171.867,240.506,142.179,222.678,119.911z"/></g></g></g></svg>