<svg xmlns="http://www.w3.org/2000/svg" xmlns:xlink="http://www.w3.org/1999/xlink" width="500" zoomAndPan="magnify" viewBox="0 0 375 374.999991" height="500" preserveAspectRatio="xMidYMid meet" version="1.0"><defs><g/><clipPath id="aecd882d96"><path d="M 14 57 L 367 57 L 367 288 L 14 288 Z M 14 57 " clip-rule="nonzero"/></clipPath><clipPath id="3af28f1a99"><path d="M 402.636719 160.152344 L 32.285156 314.324219 L -18.777344 191.660156 L 351.574219 37.488281 Z M 402.636719 160.152344 " clip-rule="nonzero"/></clipPath><clipPath id="8f78296892"><path d="M 402.636719 160.152344 L 32.285156 314.324219 L -18.777344 191.660156 L 351.574219 37.488281 Z M 402.636719 160.152344 " clip-rule="nonzero"/></clipPath><clipPath id="32e6c419a3"><path d="M 22 198 L 62 198 L 62 238 L 22 238 Z M 22 198 " clip-rule="nonzero"/></clipPath><clipPath id="2be3518eb5"><path d="M 402.636719 160.152344 L 32.285156 314.324219 L -18.777344 191.660156 L 351.574219 37.488281 Z M 402.636719 160.152344 " clip-rule="nonzero"/></clipPath><clipPath id="5787333c74"><path d="M 402.636719 160.152344 L 32.285156 314.324219 L -18.777344 191.660156 L 351.574219 37.488281 Z M 402.636719 160.152344 " clip-rule="nonzero"/></clipPath><clipPath id="f7111dd84b"><path d="M 281 143 L 321 143 L 321 184 L 281 184 Z M 281 143 " clip-rule="nonzero"/></clipPath><clipPath id="58714b87b9"><path d="M 402.636719 160.152344 L 32.285156 314.324219 L -18.777344 191.660156 L 351.574219 37.488281 Z M 402.636719 160.152344 " clip-rule="nonzero"/></clipPath><clipPath id="d08e30a48e"><path d="M 402.636719 160.152344 L 32.285156 314.324219 L -18.777344 191.660156 L 351.574219 37.488281 Z M 402.636719 160.152344 " clip-rule="nonzero"/></clipPath><clipPath id="68af791328"><path d="M 283 184 L 303 184 L 303 204 L 283 204 Z M 283 184 " clip-rule="nonzero"/></clipPath><clipPath id="00d14d3c92"><path d="M 402.636719 160.152344 L 32.285156 314.324219 L -18.777344 191.660156 L 351.574219 37.488281 Z M 402.636719 160.152344 " clip-rule="nonzero"/></clipPath><clipPath id="78d66a2521"><path d="M 402.636719 160.152344 L 32.285156 314.324219 L -18.777344 191.660156 L 351.574219 37.488281 Z M 402.636719 160.152344 " clip-rule="nonzero"/></clipPath><clipPath id="12f6f208b5"><path d="M 38 178 L 58 178 L 58 198 L 38 198 Z M 38 178 " clip-rule="nonzero"/></clipPath><clipPath id="3c5d607025"><path d="M 402.636719 160.152344 L 32.285156 314.324219 L -18.777344 191.660156 L 351.574219 37.488281 Z M 402.636719 160.152344 " clip-rule="nonzero"/></clipPath><clipPath id="46b17ac678"><path d="M 402.636719 160.152344 L 32.285156 314.324219 L -18.777344 191.660156 L 351.574219 37.488281 Z M 402.636719 160.152344 " clip-rule="nonzero"/></clipPath></defs><g clip-path="url(#aecd882d96)"><g clip-path="url(#3af28f1a99)"><g clip-path="url(#8f78296892)"><path fill="#38b6ff" d="M 246.414062 81.242188 C 279.964844 67.273438 309.03125 59.25 330.472656 58.039062 C 349.492188 56.96875 361.492188 61.414062 365.167969 70.894531 C 368.710938 80.039062 364.433594 93.578125 352.789062 110.046875 C 340.863281 126.921875 321.394531 146.554688 296.496094 166.828125 C 250.164062 204.546875 189.601562 240.761719 134.496094 263.699219 C 100.945312 277.667969 71.878906 285.6875 50.4375 286.898438 C 31.417969 287.972656 19.417969 283.527344 15.742188 274.042969 C 12.199219 264.902344 16.476562 251.363281 28.121094 234.894531 C 40.050781 218.019531 59.515625 198.386719 84.414062 178.113281 C 130.75 140.394531 191.308594 104.179688 246.414062 81.242188 Z M 134.171875 262.921875 C 189.207031 240.011719 249.691406 203.84375 295.960938 166.175781 C 345.304688 126.003906 371.519531 89.613281 364.382812 71.199219 C 360.851562 62.089844 349.140625 57.832031 330.519531 58.882812 C 309.171875 60.085938 280.203125 68.085938 246.738281 82.019531 C 191.703125 104.929688 131.21875 141.097656 84.945312 178.769531 C 35.605469 218.9375 9.386719 255.328125 16.527344 273.742188 C 20.058594 282.851562 31.769531 287.109375 50.390625 286.058594 C 71.734375 284.855469 100.707031 276.855469 134.171875 262.921875 Z M 134.171875 262.921875 " fill-opacity="1" fill-rule="nonzero"/></g></g></g><g clip-path="url(#32e6c419a3)"><g clip-path="url(#2be3518eb5)"><g clip-path="url(#5787333c74)"><path fill="#38b6ff" d="M 22.566406 225.800781 C 37.75 217.261719 38.644531 215.09375 33.886719 198.335938 C 42.425781 213.519531 44.59375 214.414062 61.351562 209.65625 C 46.167969 218.195312 45.273438 220.363281 50.03125 237.117188 C 41.492188 221.9375 39.324219 221.042969 22.566406 225.800781 Z M 22.566406 225.800781 " fill-opacity="1" fill-rule="nonzero"/></g></g></g><g clip-path="url(#f7111dd84b)"><g clip-path="url(#58714b87b9)"><g clip-path="url(#d08e30a48e)"><path fill="#38b6ff" d="M 281.109375 171.9375 C 296.597656 163.230469 297.507812 161.015625 292.65625 143.925781 C 301.363281 159.410156 303.578125 160.324219 320.671875 155.46875 C 305.183594 164.179688 304.269531 166.390625 309.125 183.484375 C 300.414062 167.996094 298.203125 167.085938 281.109375 171.9375 Z M 281.109375 171.9375 " fill-opacity="1" fill-rule="nonzero"/></g></g></g><g clip-path="url(#68af791328)"><g clip-path="url(#00d14d3c92)"><g clip-path="url(#78d66a2521)"><path fill="#38b6ff" d="M 283.644531 198.296875 C 291.21875 194.039062 291.667969 192.953125 289.292969 184.59375 C 293.550781 192.171875 294.636719 192.617188 302.996094 190.242188 C 295.421875 194.5 294.972656 195.585938 297.347656 203.945312 C 293.089844 196.371094 292.003906 195.925781 283.644531 198.296875 Z M 283.644531 198.296875 " fill-opacity="1" fill-rule="nonzero"/></g></g></g><g clip-path="url(#12f6f208b5)"><g clip-path="url(#3c5d607025)"><g clip-path="url(#46b17ac678)"><path fill="#38b6ff" d="M 38.265625 192.15625 C 45.84375 187.894531 46.289062 186.8125 43.914062 178.449219 C 48.175781 186.027344 49.257812 186.472656 57.617188 184.097656 C 50.042969 188.359375 49.597656 189.441406 51.96875 197.800781 C 47.710938 190.226562 46.628906 189.78125 38.265625 192.15625 Z M 38.265625 192.15625 " fill-opacity="1" fill-rule="nonzero"/></g></g></g><g fill="#ff66c4" fill-opacity="0.302"><g transform="translate(64.515996, 172.27076)"><g><path d="M 9.234375 -15.203125 L 6.59375 0 L 1.578125 0 L 8.328125 -38.828125 L 21.28125 -38.8125 C 25.28125 -38.8125 28.363281 -37.75 30.53125 -35.625 C 32.707031 -33.5 33.644531 -30.675781 33.34375 -27.15625 C 33.019531 -23.4375 31.535156 -20.507812 28.890625 -18.375 C 26.253906 -16.238281 22.773438 -15.171875 18.453125 -15.171875 Z M 9.953125 -19.390625 L 18.59375 -19.359375 C 21.3125 -19.359375 23.539062 -20.039062 25.28125 -21.40625 C 27.03125 -22.78125 28.054688 -24.6875 28.359375 -27.125 C 28.640625 -29.3125 28.179688 -31.082031 26.984375 -32.4375 C 25.796875 -33.800781 24.066406 -34.519531 21.796875 -34.59375 L 12.59375 -34.625 Z M 9.953125 -19.390625 "/></g></g></g><g fill="#ff66c4" fill-opacity="0.302"><g transform="translate(98.197805, 172.27076)"><g><path d="M 18.265625 -15.703125 L 9.3125 -15.703125 L 6.59375 0 L 1.546875 0 L 8.296875 -38.828125 L 19.984375 -38.8125 C 24.046875 -38.789062 27.144531 -37.753906 29.28125 -35.703125 C 31.414062 -33.660156 32.316406 -30.878906 31.984375 -27.359375 C 31.785156 -24.929688 30.898438 -22.789062 29.328125 -20.9375 C 27.753906 -19.082031 25.660156 -17.6875 23.046875 -16.75 L 29.078125 -0.34375 L 29.046875 0 L 23.71875 0 Z M 10.03125 -19.890625 L 17.390625 -19.875 C 19.953125 -19.875 22.113281 -20.550781 23.875 -21.90625 C 25.632812 -23.269531 26.664062 -25.085938 26.96875 -27.359375 C 27.226562 -29.585938 26.78125 -31.332031 25.625 -32.59375 C 24.476562 -33.851562 22.71875 -34.519531 20.34375 -34.59375 L 12.59375 -34.625 Z M 10.03125 -19.890625 "/></g></g></g><g fill="#ff66c4" fill-opacity="0.302"><g transform="translate(131.079571, 172.27076)"><g><path d="M 26.03125 -17.953125 L 9.703125 -17.953125 L 7.3125 -4.1875 L 26.296875 -4.1875 L 25.546875 0 L 1.578125 0 L 8.328125 -38.828125 L 32.03125 -38.828125 L 31.28125 -34.625 L 12.59375 -34.625 L 10.421875 -22.140625 L 26.75 -22.140625 Z M 26.03125 -17.953125 "/></g></g></g><g fill="#ff66c4" fill-opacity="0.302"><g transform="translate(161.454536, 172.27076)"><g><path d="M 23.390625 -10 C 23.785156 -12.84375 22.3125 -14.925781 18.96875 -16.25 L 14.34375 -17.921875 L 12.796875 -18.59375 C 7.609375 -20.957031 5.179688 -24.28125 5.515625 -28.5625 C 5.691406 -30.71875 6.429688 -32.617188 7.734375 -34.265625 C 9.035156 -35.921875 10.753906 -37.195312 12.890625 -38.09375 C 15.035156 -39 17.316406 -39.425781 19.734375 -39.375 C 22.085938 -39.3125 24.179688 -38.78125 26.015625 -37.78125 C 27.859375 -36.789062 29.257812 -35.398438 30.21875 -33.609375 C 31.175781 -31.828125 31.601562 -29.816406 31.5 -27.578125 L 26.453125 -27.609375 C 26.628906 -29.992188 26.09375 -31.835938 24.84375 -33.140625 C 23.601562 -34.441406 21.832031 -35.113281 19.53125 -35.15625 C 17.09375 -35.1875 15.054688 -34.613281 13.421875 -33.4375 C 11.785156 -32.269531 10.84375 -30.671875 10.59375 -28.640625 C 10.238281 -25.992188 11.863281 -23.988281 15.46875 -22.625 L 19.4375 -21.203125 L 21.4375 -20.34375 C 26.457031 -18.039062 28.78125 -14.613281 28.40625 -10.0625 C 28.207031 -7.875 27.46875 -5.984375 26.1875 -4.390625 C 24.90625 -2.796875 23.164062 -1.5625 20.96875 -0.6875 C 18.78125 0.175781 16.421875 0.582031 13.890625 0.53125 C 11.460938 0.507812 9.238281 -0.0078125 7.21875 -1.03125 C 5.195312 -2.050781 3.660156 -3.445312 2.609375 -5.21875 C 1.566406 -7 1.109375 -9.019531 1.234375 -11.28125 L 6.234375 -11.25 C 6.078125 -8.9375 6.707031 -7.097656 8.125 -5.734375 C 9.539062 -4.378906 11.535156 -3.679688 14.109375 -3.640625 C 16.691406 -3.609375 18.816406 -4.171875 20.484375 -5.328125 C 22.148438 -6.484375 23.117188 -8.039062 23.390625 -10 Z M 23.390625 -10 "/></g></g></g><g fill="#ff66c4" fill-opacity="0.302"><g transform="translate(193.162906, 172.27076)"><g><path d="M 26.03125 -17.953125 L 9.703125 -17.953125 L 7.3125 -4.1875 L 26.296875 -4.1875 L 25.546875 0 L 1.578125 0 L 8.328125 -38.828125 L 32.03125 -38.828125 L 31.28125 -34.625 L 12.59375 -34.625 L 10.421875 -22.140625 L 26.75 -22.140625 Z M 26.03125 -17.953125 "/></g></g></g><g fill="#ff66c4" fill-opacity="0.302"><g transform="translate(223.537871, 172.27076)"><g><path d="M 30.5625 0 L 25.71875 0 L 11.84375 -30.140625 L 6.609375 0 L 1.578125 0 L 8.328125 -38.828125 L 13.171875 -38.828125 L 27.078125 -8.5625 L 32.328125 -38.828125 L 37.3125 -38.828125 Z M 30.5625 0 "/></g></g></g><g fill="#ff66c4" fill-opacity="0.302"><g transform="translate(261.56658, 172.27076)"><g><path d="M 33.640625 -34.625 L 21.546875 -34.625 L 15.546875 0 L 10.5625 0 L 16.5625 -34.625 L 4.484375 -34.625 L 5.234375 -38.828125 L 34.375 -38.828125 Z M 33.640625 -34.625 "/></g></g></g><g fill="#ff66c4" fill-opacity="0.502"><g transform="translate(63.223383, 172.383845)"><g><path d="M 9.234375 -15.203125 L 6.59375 0 L 1.578125 0 L 8.328125 -38.828125 L 21.28125 -38.8125 C 25.28125 -38.8125 28.363281 -37.75 30.53125 -35.625 C 32.707031 -33.5 33.644531 -30.675781 33.34375 -27.15625 C 33.019531 -23.4375 31.535156 -20.507812 28.890625 -18.375 C 26.253906 -16.238281 22.773438 -15.171875 18.453125 -15.171875 Z M 9.953125 -19.390625 L 18.59375 -19.359375 C 21.3125 -19.359375 23.539062 -20.039062 25.28125 -21.40625 C 27.03125 -22.78125 28.054688 -24.6875 28.359375 -27.125 C 28.640625 -29.3125 28.179688 -31.082031 26.984375 -32.4375 C 25.796875 -33.800781 24.066406 -34.519531 21.796875 -34.59375 L 12.59375 -34.625 Z M 9.953125 -19.390625 "/></g></g></g><g fill="#ff66c4" fill-opacity="0.502"><g transform="translate(96.905192, 172.383845)"><g><path d="M 18.265625 -15.703125 L 9.3125 -15.703125 L 6.59375 0 L 1.546875 0 L 8.296875 -38.828125 L 19.984375 -38.8125 C 24.046875 -38.789062 27.144531 -37.753906 29.28125 -35.703125 C 31.414062 -33.660156 32.316406 -30.878906 31.984375 -27.359375 C 31.785156 -24.929688 30.898438 -22.789062 29.328125 -20.9375 C 27.753906 -19.082031 25.660156 -17.6875 23.046875 -16.75 L 29.078125 -0.34375 L 29.046875 0 L 23.71875 0 Z M 10.03125 -19.890625 L 17.390625 -19.875 C 19.953125 -19.875 22.113281 -20.550781 23.875 -21.90625 C 25.632812 -23.269531 26.664062 -25.085938 26.96875 -27.359375 C 27.226562 -29.585938 26.78125 -31.332031 25.625 -32.59375 C 24.476562 -33.851562 22.71875 -34.519531 20.34375 -34.59375 L 12.59375 -34.625 Z M 10.03125 -19.890625 "/></g></g></g><g fill="#ff66c4" fill-opacity="0.502"><g transform="translate(129.786957, 172.383845)"><g><path d="M 26.03125 -17.953125 L 9.703125 -17.953125 L 7.3125 -4.1875 L 26.296875 -4.1875 L 25.546875 0 L 1.578125 0 L 8.328125 -38.828125 L 32.03125 -38.828125 L 31.28125 -34.625 L 12.59375 -34.625 L 10.421875 -22.140625 L 26.75 -22.140625 Z M 26.03125 -17.953125 "/></g></g></g><g fill="#ff66c4" fill-opacity="0.502"><g transform="translate(160.161922, 172.383845)"><g><path d="M 23.390625 -10 C 23.785156 -12.84375 22.3125 -14.925781 18.96875 -16.25 L 14.34375 -17.921875 L 12.796875 -18.59375 C 7.609375 -20.957031 5.179688 -24.28125 5.515625 -28.5625 C 5.691406 -30.71875 6.429688 -32.617188 7.734375 -34.265625 C 9.035156 -35.921875 10.753906 -37.195312 12.890625 -38.09375 C 15.035156 -39 17.316406 -39.425781 19.734375 -39.375 C 22.085938 -39.3125 24.179688 -38.78125 26.015625 -37.78125 C 27.859375 -36.789062 29.257812 -35.398438 30.21875 -33.609375 C 31.175781 -31.828125 31.601562 -29.816406 31.5 -27.578125 L 26.453125 -27.609375 C 26.628906 -29.992188 26.09375 -31.835938 24.84375 -33.140625 C 23.601562 -34.441406 21.832031 -35.113281 19.53125 -35.15625 C 17.09375 -35.1875 15.054688 -34.613281 13.421875 -33.4375 C 11.785156 -32.269531 10.84375 -30.671875 10.59375 -28.640625 C 10.238281 -25.992188 11.863281 -23.988281 15.46875 -22.625 L 19.4375 -21.203125 L 21.4375 -20.34375 C 26.457031 -18.039062 28.78125 -14.613281 28.40625 -10.0625 C 28.207031 -7.875 27.46875 -5.984375 26.1875 -4.390625 C 24.90625 -2.796875 23.164062 -1.5625 20.96875 -0.6875 C 18.78125 0.175781 16.421875 0.582031 13.890625 0.53125 C 11.460938 0.507812 9.238281 -0.0078125 7.21875 -1.03125 C 5.195312 -2.050781 3.660156 -3.445312 2.609375 -5.21875 C 1.566406 -7 1.109375 -9.019531 1.234375 -11.28125 L 6.234375 -11.25 C 6.078125 -8.9375 6.707031 -7.097656 8.125 -5.734375 C 9.539062 -4.378906 11.535156 -3.679688 14.109375 -3.640625 C 16.691406 -3.609375 18.816406 -4.171875 20.484375 -5.328125 C 22.148438 -6.484375 23.117188 -8.039062 23.390625 -10 Z M 23.390625 -10 "/></g></g></g><g fill="#ff66c4" fill-opacity="0.502"><g transform="translate(191.870292, 172.383845)"><g><path d="M 26.03125 -17.953125 L 9.703125 -17.953125 L 7.3125 -4.1875 L 26.296875 -4.1875 L 25.546875 0 L 1.578125 0 L 8.328125 -38.828125 L 32.03125 -38.828125 L 31.28125 -34.625 L 12.59375 -34.625 L 10.421875 -22.140625 L 26.75 -22.140625 Z M 26.03125 -17.953125 "/></g></g></g><g fill="#ff66c4" fill-opacity="0.502"><g transform="translate(222.245257, 172.383845)"><g><path d="M 30.5625 0 L 25.71875 0 L 11.84375 -30.140625 L 6.609375 0 L 1.578125 0 L 8.328125 -38.828125 L 13.171875 -38.828125 L 27.078125 -8.5625 L 32.328125 -38.828125 L 37.3125 -38.828125 Z M 30.5625 0 "/></g></g></g><g fill="#ff66c4" fill-opacity="0.502"><g transform="translate(260.273966, 172.383845)"><g><path d="M 33.640625 -34.625 L 21.546875 -34.625 L 15.546875 0 L 10.5625 0 L 16.5625 -34.625 L 4.484375 -34.625 L 5.234375 -38.828125 L 34.375 -38.828125 Z M 33.640625 -34.625 "/></g></g></g><g fill="#38b6ff" fill-opacity="1"><g transform="translate(61.93076, 172.496931)"><g><path d="M 9.234375 -15.203125 L 6.59375 0 L 1.578125 0 L 8.328125 -38.828125 L 21.28125 -38.8125 C 25.28125 -38.8125 28.363281 -37.75 30.53125 -35.625 C 32.707031 -33.5 33.644531 -30.675781 33.34375 -27.15625 C 33.019531 -23.4375 31.535156 -20.507812 28.890625 -18.375 C 26.253906 -16.238281 22.773438 -15.171875 18.453125 -15.171875 Z M 9.953125 -19.390625 L 18.59375 -19.359375 C 21.3125 -19.359375 23.539062 -20.039062 25.28125 -21.40625 C 27.03125 -22.78125 28.054688 -24.6875 28.359375 -27.125 C 28.640625 -29.3125 28.179688 -31.082031 26.984375 -32.4375 C 25.796875 -33.800781 24.066406 -34.519531 21.796875 -34.59375 L 12.59375 -34.625 Z M 9.953125 -19.390625 "/></g></g></g><g fill="#38b6ff" fill-opacity="1"><g transform="translate(95.612568, 172.496931)"><g><path d="M 18.265625 -15.703125 L 9.3125 -15.703125 L 6.59375 0 L 1.546875 0 L 8.296875 -38.828125 L 19.984375 -38.8125 C 24.046875 -38.789062 27.144531 -37.753906 29.28125 -35.703125 C 31.414062 -33.660156 32.316406 -30.878906 31.984375 -27.359375 C 31.785156 -24.929688 30.898438 -22.789062 29.328125 -20.9375 C 27.753906 -19.082031 25.660156 -17.6875 23.046875 -16.75 L 29.078125 -0.34375 L 29.046875 0 L 23.71875 0 Z M 10.03125 -19.890625 L 17.390625 -19.875 C 19.953125 -19.875 22.113281 -20.550781 23.875 -21.90625 C 25.632812 -23.269531 26.664062 -25.085938 26.96875 -27.359375 C 27.226562 -29.585938 26.78125 -31.332031 25.625 -32.59375 C 24.476562 -33.851562 22.71875 -34.519531 20.34375 -34.59375 L 12.59375 -34.625 Z M 10.03125 -19.890625 "/></g></g></g><g fill="#38b6ff" fill-opacity="1"><g transform="translate(128.494334, 172.496931)"><g><path d="M 26.03125 -17.953125 L 9.703125 -17.953125 L 7.3125 -4.1875 L 26.296875 -4.1875 L 25.546875 0 L 1.578125 0 L 8.328125 -38.828125 L 32.03125 -38.828125 L 31.28125 -34.625 L 12.59375 -34.625 L 10.421875 -22.140625 L 26.75 -22.140625 Z M 26.03125 -17.953125 "/></g></g></g><g fill="#38b6ff" fill-opacity="1"><g transform="translate(158.869299, 172.496931)"><g><path d="M 23.390625 -10 C 23.785156 -12.84375 22.3125 -14.925781 18.96875 -16.25 L 14.34375 -17.921875 L 12.796875 -18.59375 C 7.609375 -20.957031 5.179688 -24.28125 5.515625 -28.5625 C 5.691406 -30.71875 6.429688 -32.617188 7.734375 -34.265625 C 9.035156 -35.921875 10.753906 -37.195312 12.890625 -38.09375 C 15.035156 -39 17.316406 -39.425781 19.734375 -39.375 C 22.085938 -39.3125 24.179688 -38.78125 26.015625 -37.78125 C 27.859375 -36.789062 29.257812 -35.398438 30.21875 -33.609375 C 31.175781 -31.828125 31.601562 -29.816406 31.5 -27.578125 L 26.453125 -27.609375 C 26.628906 -29.992188 26.09375 -31.835938 24.84375 -33.140625 C 23.601562 -34.441406 21.832031 -35.113281 19.53125 -35.15625 C 17.09375 -35.1875 15.054688 -34.613281 13.421875 -33.4375 C 11.785156 -32.269531 10.84375 -30.671875 10.59375 -28.640625 C 10.238281 -25.992188 11.863281 -23.988281 15.46875 -22.625 L 19.4375 -21.203125 L 21.4375 -20.34375 C 26.457031 -18.039062 28.78125 -14.613281 28.40625 -10.0625 C 28.207031 -7.875 27.46875 -5.984375 26.1875 -4.390625 C 24.90625 -2.796875 23.164062 -1.5625 20.96875 -0.6875 C 18.78125 0.175781 16.421875 0.582031 13.890625 0.53125 C 11.460938 0.507812 9.238281 -0.0078125 7.21875 -1.03125 C 5.195312 -2.050781 3.660156 -3.445312 2.609375 -5.21875 C 1.566406 -7 1.109375 -9.019531 1.234375 -11.28125 L 6.234375 -11.25 C 6.078125 -8.9375 6.707031 -7.097656 8.125 -5.734375 C 9.539062 -4.378906 11.535156 -3.679688 14.109375 -3.640625 C 16.691406 -3.609375 18.816406 -4.171875 20.484375 -5.328125 C 22.148438 -6.484375 23.117188 -8.039062 23.390625 -10 Z M 23.390625 -10 "/></g></g></g><g fill="#38b6ff" fill-opacity="1"><g transform="translate(190.577669, 172.496931)"><g><path d="M 26.03125 -17.953125 L 9.703125 -17.953125 L 7.3125 -4.1875 L 26.296875 -4.1875 L 25.546875 0 L 1.578125 0 L 8.328125 -38.828125 L 32.03125 -38.828125 L 31.28125 -34.625 L 12.59375 -34.625 L 10.421875 -22.140625 L 26.75 -22.140625 Z M 26.03125 -17.953125 "/></g></g></g><g fill="#38b6ff" fill-opacity="1"><g transform="translate(220.952634, 172.496931)"><g><path d="M 30.5625 0 L 25.71875 0 L 11.84375 -30.140625 L 6.609375 0 L 1.578125 0 L 8.328125 -38.828125 L 13.171875 -38.828125 L 27.078125 -8.5625 L 32.328125 -38.828125 L 37.3125 -38.828125 Z M 30.5625 0 "/></g></g></g><g fill="#38b6ff" fill-opacity="1"><g transform="translate(258.981343, 172.496931)"><g><path d="M 33.640625 -34.625 L 21.546875 -34.625 L 15.546875 0 L 10.5625 0 L 16.5625 -34.625 L 4.484375 -34.625 L 5.234375 -38.828125 L 34.375 -38.828125 Z M 33.640625 -34.625 "/></g></g></g><g fill="#ff66c4" fill-opacity="0.302"><g transform="translate(66.858214, 215.708258)"><g><path d="M 9.234375 -15.203125 L 6.59375 0 L 1.578125 0 L 8.328125 -38.828125 L 21.28125 -38.8125 C 25.28125 -38.8125 28.363281 -37.75 30.53125 -35.625 C 32.707031 -33.5 33.644531 -30.675781 33.34375 -27.15625 C 33.019531 -23.4375 31.535156 -20.507812 28.890625 -18.375 C 26.253906 -16.238281 22.773438 -15.171875 18.453125 -15.171875 Z M 9.953125 -19.390625 L 18.59375 -19.359375 C 21.3125 -19.359375 23.539062 -20.039062 25.28125 -21.40625 C 27.03125 -22.78125 28.054688 -24.6875 28.359375 -27.125 C 28.640625 -29.3125 28.179688 -31.082031 26.984375 -32.4375 C 25.796875 -33.800781 24.066406 -34.519531 21.796875 -34.59375 L 12.59375 -34.625 Z M 9.953125 -19.390625 "/></g></g></g><g fill="#ff66c4" fill-opacity="0.302"><g transform="translate(100.540023, 215.708258)"><g><path d="M 15.8125 0.53125 C 13.34375 0.476562 11.195312 -0.113281 9.375 -1.25 C 7.550781 -2.382812 6.113281 -4.0625 5.0625 -6.28125 C 4.019531 -8.5 3.441406 -10.984375 3.328125 -13.734375 C 3.222656 -15.890625 3.460938 -18.546875 4.046875 -21.703125 C 4.640625 -24.867188 5.65625 -27.722656 7.09375 -30.265625 C 8.53125 -32.816406 10.28125 -34.851562 12.34375 -36.375 C 15.132812 -38.4375 18.316406 -39.4375 21.890625 -39.375 C 25.679688 -39.300781 28.671875 -37.988281 30.859375 -35.4375 C 33.046875 -32.882812 34.21875 -29.429688 34.375 -25.078125 C 34.445312 -23.203125 34.253906 -20.820312 33.796875 -17.9375 C 33.347656 -15.0625 32.539062 -12.390625 31.375 -9.921875 C 30.21875 -7.453125 28.738281 -5.378906 26.9375 -3.703125 C 23.8125 -0.785156 20.101562 0.625 15.8125 0.53125 Z M 29.453125 -23.84375 C 29.554688 -27.34375 28.941406 -30.054688 27.609375 -31.984375 C 26.273438 -33.921875 24.289062 -34.925781 21.65625 -35 C 19.269531 -35.0625 17.140625 -34.414062 15.265625 -33.0625 C 13.390625 -31.71875 11.851562 -29.695312 10.65625 -27 C 9.457031 -24.3125 8.695312 -20.90625 8.375 -16.78125 L 8.296875 -15.046875 C 8.191406 -11.554688 8.8125 -8.820312 10.15625 -6.84375 C 11.507812 -4.875 13.476562 -3.851562 16.0625 -3.78125 C 19.414062 -3.695312 22.195312 -4.910156 24.40625 -7.421875 C 26.625 -9.941406 28.097656 -13.476562 28.828125 -18.03125 C 29.179688 -20.269531 29.390625 -22.207031 29.453125 -23.84375 Z M 29.453125 -23.84375 "/></g></g></g><g fill="#ff66c4" fill-opacity="0.302"><g transform="translate(137.235327, 215.708258)"><g><path d="M 6.9375 0 L 1.953125 0 L 8.6875 -38.828125 L 13.6875 -38.828125 Z M 6.9375 0 "/></g></g></g><g fill="#ff66c4" fill-opacity="0.302"><g transform="translate(151.902781, 215.708258)"><g><path d="M 23.390625 -10 C 23.785156 -12.84375 22.3125 -14.925781 18.96875 -16.25 L 14.34375 -17.921875 L 12.796875 -18.59375 C 7.609375 -20.957031 5.179688 -24.28125 5.515625 -28.5625 C 5.691406 -30.71875 6.429688 -32.617188 7.734375 -34.265625 C 9.035156 -35.921875 10.753906 -37.195312 12.890625 -38.09375 C 15.035156 -39 17.316406 -39.425781 19.734375 -39.375 C 22.085938 -39.3125 24.179688 -38.78125 26.015625 -37.78125 C 27.859375 -36.789062 29.257812 -35.398438 30.21875 -33.609375 C 31.175781 -31.828125 31.601562 -29.816406 31.5 -27.578125 L 26.453125 -27.609375 C 26.628906 -29.992188 26.09375 -31.835938 24.84375 -33.140625 C 23.601562 -34.441406 21.832031 -35.113281 19.53125 -35.15625 C 17.09375 -35.1875 15.054688 -34.613281 13.421875 -33.4375 C 11.785156 -32.269531 10.84375 -30.671875 10.59375 -28.640625 C 10.238281 -25.992188 11.863281 -23.988281 15.46875 -22.625 L 19.4375 -21.203125 L 21.4375 -20.34375 C 26.457031 -18.039062 28.78125 -14.613281 28.40625 -10.0625 C 28.207031 -7.875 27.46875 -5.984375 26.1875 -4.390625 C 24.90625 -2.796875 23.164062 -1.5625 20.96875 -0.6875 C 18.78125 0.175781 16.421875 0.582031 13.890625 0.53125 C 11.460938 0.507812 9.238281 -0.0078125 7.21875 -1.03125 C 5.195312 -2.050781 3.660156 -3.445312 2.609375 -5.21875 C 1.566406 -7 1.109375 -9.019531 1.234375 -11.28125 L 6.234375 -11.25 C 6.078125 -8.9375 6.707031 -7.097656 8.125 -5.734375 C 9.539062 -4.378906 11.535156 -3.679688 14.109375 -3.640625 C 16.691406 -3.609375 18.816406 -4.171875 20.484375 -5.328125 C 22.148438 -6.484375 23.117188 -8.039062 23.390625 -10 Z M 23.390625 -10 "/></g></g></g><g fill="#ff66c4" fill-opacity="0.302"><g transform="translate(183.611151, 215.708258)"><g><path d="M 23.390625 -10 C 23.785156 -12.84375 22.3125 -14.925781 18.96875 -16.25 L 14.34375 -17.921875 L 12.796875 -18.59375 C 7.609375 -20.957031 5.179688 -24.28125 5.515625 -28.5625 C 5.691406 -30.71875 6.429688 -32.617188 7.734375 -34.265625 C 9.035156 -35.921875 10.753906 -37.195312 12.890625 -38.09375 C 15.035156 -39 17.316406 -39.425781 19.734375 -39.375 C 22.085938 -39.3125 24.179688 -38.78125 26.015625 -37.78125 C 27.859375 -36.789062 29.257812 -35.398438 30.21875 -33.609375 C 31.175781 -31.828125 31.601562 -29.816406 31.5 -27.578125 L 26.453125 -27.609375 C 26.628906 -29.992188 26.09375 -31.835938 24.84375 -33.140625 C 23.601562 -34.441406 21.832031 -35.113281 19.53125 -35.15625 C 17.09375 -35.1875 15.054688 -34.613281 13.421875 -33.4375 C 11.785156 -32.269531 10.84375 -30.671875 10.59375 -28.640625 C 10.238281 -25.992188 11.863281 -23.988281 15.46875 -22.625 L 19.4375 -21.203125 L 21.4375 -20.34375 C 26.457031 -18.039062 28.78125 -14.613281 28.40625 -10.0625 C 28.207031 -7.875 27.46875 -5.984375 26.1875 -4.390625 C 24.90625 -2.796875 23.164062 -1.5625 20.96875 -0.6875 C 18.78125 0.175781 16.421875 0.582031 13.890625 0.53125 C 11.460938 0.507812 9.238281 -0.0078125 7.21875 -1.03125 C 5.195312 -2.050781 3.660156 -3.445312 2.609375 -5.21875 C 1.566406 -7 1.109375 -9.019531 1.234375 -11.28125 L 6.234375 -11.25 C 6.078125 -8.9375 6.707031 -7.097656 8.125 -5.734375 C 9.539062 -4.378906 11.535156 -3.679688 14.109375 -3.640625 C 16.691406 -3.609375 18.816406 -4.171875 20.484375 -5.328125 C 22.148438 -6.484375 23.117188 -8.039062 23.390625 -10 Z M 23.390625 -10 "/></g></g></g><g fill="#ff66c4" fill-opacity="0.302"><g transform="translate(215.319521, 215.708258)"><g><path d="M 15.8125 0.53125 C 13.34375 0.476562 11.195312 -0.113281 9.375 -1.25 C 7.550781 -2.382812 6.113281 -4.0625 5.0625 -6.28125 C 4.019531 -8.5 3.441406 -10.984375 3.328125 -13.734375 C 3.222656 -15.890625 3.460938 -18.546875 4.046875 -21.703125 C 4.640625 -24.867188 5.65625 -27.722656 7.09375 -30.265625 C 8.53125 -32.816406 10.28125 -34.851562 12.34375 -36.375 C 15.132812 -38.4375 18.316406 -39.4375 21.890625 -39.375 C 25.679688 -39.300781 28.671875 -37.988281 30.859375 -35.4375 C 33.046875 -32.882812 34.21875 -29.429688 34.375 -25.078125 C 34.445312 -23.203125 34.253906 -20.820312 33.796875 -17.9375 C 33.347656 -15.0625 32.539062 -12.390625 31.375 -9.921875 C 30.21875 -7.453125 28.738281 -5.378906 26.9375 -3.703125 C 23.8125 -0.785156 20.101562 0.625 15.8125 0.53125 Z M 29.453125 -23.84375 C 29.554688 -27.34375 28.941406 -30.054688 27.609375 -31.984375 C 26.273438 -33.921875 24.289062 -34.925781 21.65625 -35 C 19.269531 -35.0625 17.140625 -34.414062 15.265625 -33.0625 C 13.390625 -31.71875 11.851562 -29.695312 10.65625 -27 C 9.457031 -24.3125 8.695312 -20.90625 8.375 -16.78125 L 8.296875 -15.046875 C 8.191406 -11.554688 8.8125 -8.820312 10.15625 -6.84375 C 11.507812 -4.875 13.476562 -3.851562 16.0625 -3.78125 C 19.414062 -3.695312 22.195312 -4.910156 24.40625 -7.421875 C 26.625 -9.941406 28.097656 -13.476562 28.828125 -18.03125 C 29.179688 -20.269531 29.390625 -22.207031 29.453125 -23.84375 Z M 29.453125 -23.84375 "/></g></g></g><g fill="#ff66c4" fill-opacity="0.302"><g transform="translate(252.014825, 215.708258)"><g><path d="M 30.5625 0 L 25.71875 0 L 11.84375 -30.140625 L 6.609375 0 L 1.578125 0 L 8.328125 -38.828125 L 13.171875 -38.828125 L 27.078125 -8.5625 L 32.328125 -38.828125 L 37.3125 -38.828125 Z M 30.5625 0 "/></g></g></g><g fill="#ff66c4" fill-opacity="0.502"><g transform="translate(65.565601, 215.821344)"><g><path d="M 9.234375 -15.203125 L 6.59375 0 L 1.578125 0 L 8.328125 -38.828125 L 21.28125 -38.8125 C 25.28125 -38.8125 28.363281 -37.75 30.53125 -35.625 C 32.707031 -33.5 33.644531 -30.675781 33.34375 -27.15625 C 33.019531 -23.4375 31.535156 -20.507812 28.890625 -18.375 C 26.253906 -16.238281 22.773438 -15.171875 18.453125 -15.171875 Z M 9.953125 -19.390625 L 18.59375 -19.359375 C 21.3125 -19.359375 23.539062 -20.039062 25.28125 -21.40625 C 27.03125 -22.78125 28.054688 -24.6875 28.359375 -27.125 C 28.640625 -29.3125 28.179688 -31.082031 26.984375 -32.4375 C 25.796875 -33.800781 24.066406 -34.519531 21.796875 -34.59375 L 12.59375 -34.625 Z M 9.953125 -19.390625 "/></g></g></g><g fill="#ff66c4" fill-opacity="0.502"><g transform="translate(99.24741, 215.821344)"><g><path d="M 15.8125 0.53125 C 13.34375 0.476562 11.195312 -0.113281 9.375 -1.25 C 7.550781 -2.382812 6.113281 -4.0625 5.0625 -6.28125 C 4.019531 -8.5 3.441406 -10.984375 3.328125 -13.734375 C 3.222656 -15.890625 3.460938 -18.546875 4.046875 -21.703125 C 4.640625 -24.867188 5.65625 -27.722656 7.09375 -30.265625 C 8.53125 -32.816406 10.28125 -34.851562 12.34375 -36.375 C 15.132812 -38.4375 18.316406 -39.4375 21.890625 -39.375 C 25.679688 -39.300781 28.671875 -37.988281 30.859375 -35.4375 C 33.046875 -32.882812 34.21875 -29.429688 34.375 -25.078125 C 34.445312 -23.203125 34.253906 -20.820312 33.796875 -17.9375 C 33.347656 -15.0625 32.539062 -12.390625 31.375 -9.921875 C 30.21875 -7.453125 28.738281 -5.378906 26.9375 -3.703125 C 23.8125 -0.785156 20.101562 0.625 15.8125 0.53125 Z M 29.453125 -23.84375 C 29.554688 -27.34375 28.941406 -30.054688 27.609375 -31.984375 C 26.273438 -33.921875 24.289062 -34.925781 21.65625 -35 C 19.269531 -35.0625 17.140625 -34.414062 15.265625 -33.0625 C 13.390625 -31.71875 11.851562 -29.695312 10.65625 -27 C 9.457031 -24.3125 8.695312 -20.90625 8.375 -16.78125 L 8.296875 -15.046875 C 8.191406 -11.554688 8.8125 -8.820312 10.15625 -6.84375 C 11.507812 -4.875 13.476562 -3.851562 16.0625 -3.78125 C 19.414062 -3.695312 22.195312 -4.910156 24.40625 -7.421875 C 26.625 -9.941406 28.097656 -13.476562 28.828125 -18.03125 C 29.179688 -20.269531 29.390625 -22.207031 29.453125 -23.84375 Z M 29.453125 -23.84375 "/></g></g></g><g fill="#ff66c4" fill-opacity="0.502"><g transform="translate(135.942714, 215.821344)"><g><path d="M 6.9375 0 L 1.953125 0 L 8.6875 -38.828125 L 13.6875 -38.828125 Z M 6.9375 0 "/></g></g></g><g fill="#ff66c4" fill-opacity="0.502"><g transform="translate(150.610168, 215.821344)"><g><path d="M 23.390625 -10 C 23.785156 -12.84375 22.3125 -14.925781 18.96875 -16.25 L 14.34375 -17.921875 L 12.796875 -18.59375 C 7.609375 -20.957031 5.179688 -24.28125 5.515625 -28.5625 C 5.691406 -30.71875 6.429688 -32.617188 7.734375 -34.265625 C 9.035156 -35.921875 10.753906 -37.195312 12.890625 -38.09375 C 15.035156 -39 17.316406 -39.425781 19.734375 -39.375 C 22.085938 -39.3125 24.179688 -38.78125 26.015625 -37.78125 C 27.859375 -36.789062 29.257812 -35.398438 30.21875 -33.609375 C 31.175781 -31.828125 31.601562 -29.816406 31.5 -27.578125 L 26.453125 -27.609375 C 26.628906 -29.992188 26.09375 -31.835938 24.84375 -33.140625 C 23.601562 -34.441406 21.832031 -35.113281 19.53125 -35.15625 C 17.09375 -35.1875 15.054688 -34.613281 13.421875 -33.4375 C 11.785156 -32.269531 10.84375 -30.671875 10.59375 -28.640625 C 10.238281 -25.992188 11.863281 -23.988281 15.46875 -22.625 L 19.4375 -21.203125 L 21.4375 -20.34375 C 26.457031 -18.039062 28.78125 -14.613281 28.40625 -10.0625 C 28.207031 -7.875 27.46875 -5.984375 26.1875 -4.390625 C 24.90625 -2.796875 23.164062 -1.5625 20.96875 -0.6875 C 18.78125 0.175781 16.421875 0.582031 13.890625 0.53125 C 11.460938 0.507812 9.238281 -0.0078125 7.21875 -1.03125 C 5.195312 -2.050781 3.660156 -3.445312 2.609375 -5.21875 C 1.566406 -7 1.109375 -9.019531 1.234375 -11.28125 L 6.234375 -11.25 C 6.078125 -8.9375 6.707031 -7.097656 8.125 -5.734375 C 9.539062 -4.378906 11.535156 -3.679688 14.109375 -3.640625 C 16.691406 -3.609375 18.816406 -4.171875 20.484375 -5.328125 C 22.148438 -6.484375 23.117188 -8.039062 23.390625 -10 Z M 23.390625 -10 "/></g></g></g><g fill="#ff66c4" fill-opacity="0.502"><g transform="translate(182.318538, 215.821344)"><g><path d="M 23.390625 -10 C 23.785156 -12.84375 22.3125 -14.925781 18.96875 -16.25 L 14.34375 -17.921875 L 12.796875 -18.59375 C 7.609375 -20.957031 5.179688 -24.28125 5.515625 -28.5625 C 5.691406 -30.71875 6.429688 -32.617188 7.734375 -34.265625 C 9.035156 -35.921875 10.753906 -37.195312 12.890625 -38.09375 C 15.035156 -39 17.316406 -39.425781 19.734375 -39.375 C 22.085938 -39.3125 24.179688 -38.78125 26.015625 -37.78125 C 27.859375 -36.789062 29.257812 -35.398438 30.21875 -33.609375 C 31.175781 -31.828125 31.601562 -29.816406 31.5 -27.578125 L 26.453125 -27.609375 C 26.628906 -29.992188 26.09375 -31.835938 24.84375 -33.140625 C 23.601562 -34.441406 21.832031 -35.113281 19.53125 -35.15625 C 17.09375 -35.1875 15.054688 -34.613281 13.421875 -33.4375 C 11.785156 -32.269531 10.84375 -30.671875 10.59375 -28.640625 C 10.238281 -25.992188 11.863281 -23.988281 15.46875 -22.625 L 19.4375 -21.203125 L 21.4375 -20.34375 C 26.457031 -18.039062 28.78125 -14.613281 28.40625 -10.0625 C 28.207031 -7.875 27.46875 -5.984375 26.1875 -4.390625 C 24.90625 -2.796875 23.164062 -1.5625 20.96875 -0.6875 C 18.78125 0.175781 16.421875 0.582031 13.890625 0.53125 C 11.460938 0.507812 9.238281 -0.0078125 7.21875 -1.03125 C 5.195312 -2.050781 3.660156 -3.445312 2.609375 -5.21875 C 1.566406 -7 1.109375 -9.019531 1.234375 -11.28125 L 6.234375 -11.25 C 6.078125 -8.9375 6.707031 -7.097656 8.125 -5.734375 C 9.539062 -4.378906 11.535156 -3.679688 14.109375 -3.640625 C 16.691406 -3.609375 18.816406 -4.171875 20.484375 -5.328125 C 22.148438 -6.484375 23.117188 -8.039062 23.390625 -10 Z M 23.390625 -10 "/></g></g></g><g fill="#ff66c4" fill-opacity="0.502"><g transform="translate(214.026908, 215.821344)"><g><path d="M 15.8125 0.53125 C 13.34375 0.476562 11.195312 -0.113281 9.375 -1.25 C 7.550781 -2.382812 6.113281 -4.0625 5.0625 -6.28125 C 4.019531 -8.5 3.441406 -10.984375 3.328125 -13.734375 C 3.222656 -15.890625 3.460938 -18.546875 4.046875 -21.703125 C 4.640625 -24.867188 5.65625 -27.722656 7.09375 -30.265625 C 8.53125 -32.816406 10.28125 -34.851562 12.34375 -36.375 C 15.132812 -38.4375 18.316406 -39.4375 21.890625 -39.375 C 25.679688 -39.300781 28.671875 -37.988281 30.859375 -35.4375 C 33.046875 -32.882812 34.21875 -29.429688 34.375 -25.078125 C 34.445312 -23.203125 34.253906 -20.820312 33.796875 -17.9375 C 33.347656 -15.0625 32.539062 -12.390625 31.375 -9.921875 C 30.21875 -7.453125 28.738281 -5.378906 26.9375 -3.703125 C 23.8125 -0.785156 20.101562 0.625 15.8125 0.53125 Z M 29.453125 -23.84375 C 29.554688 -27.34375 28.941406 -30.054688 27.609375 -31.984375 C 26.273438 -33.921875 24.289062 -34.925781 21.65625 -35 C 19.269531 -35.0625 17.140625 -34.414062 15.265625 -33.0625 C 13.390625 -31.71875 11.851562 -29.695312 10.65625 -27 C 9.457031 -24.3125 8.695312 -20.90625 8.375 -16.78125 L 8.296875 -15.046875 C 8.191406 -11.554688 8.8125 -8.820312 10.15625 -6.84375 C 11.507812 -4.875 13.476562 -3.851562 16.0625 -3.78125 C 19.414062 -3.695312 22.195312 -4.910156 24.40625 -7.421875 C 26.625 -9.941406 28.097656 -13.476562 28.828125 -18.03125 C 29.179688 -20.269531 29.390625 -22.207031 29.453125 -23.84375 Z M 29.453125 -23.84375 "/></g></g></g><g fill="#ff66c4" fill-opacity="0.502"><g transform="translate(250.722212, 215.821344)"><g><path d="M 30.5625 0 L 25.71875 0 L 11.84375 -30.140625 L 6.609375 0 L 1.578125 0 L 8.328125 -38.828125 L 13.171875 -38.828125 L 27.078125 -8.5625 L 32.328125 -38.828125 L 37.3125 -38.828125 Z M 30.5625 0 "/></g></g></g><g fill="#38b6ff" fill-opacity="1"><g transform="translate(64.272978, 215.93443)"><g><path d="M 9.234375 -15.203125 L 6.59375 0 L 1.578125 0 L 8.328125 -38.828125 L 21.28125 -38.8125 C 25.28125 -38.8125 28.363281 -37.75 30.53125 -35.625 C 32.707031 -33.5 33.644531 -30.675781 33.34375 -27.15625 C 33.019531 -23.4375 31.535156 -20.507812 28.890625 -18.375 C 26.253906 -16.238281 22.773438 -15.171875 18.453125 -15.171875 Z M 9.953125 -19.390625 L 18.59375 -19.359375 C 21.3125 -19.359375 23.539062 -20.039062 25.28125 -21.40625 C 27.03125 -22.78125 28.054688 -24.6875 28.359375 -27.125 C 28.640625 -29.3125 28.179688 -31.082031 26.984375 -32.4375 C 25.796875 -33.800781 24.066406 -34.519531 21.796875 -34.59375 L 12.59375 -34.625 Z M 9.953125 -19.390625 "/></g></g></g><g fill="#38b6ff" fill-opacity="1"><g transform="translate(97.954787, 215.93443)"><g><path d="M 15.8125 0.53125 C 13.34375 0.476562 11.195312 -0.113281 9.375 -1.25 C 7.550781 -2.382812 6.113281 -4.0625 5.0625 -6.28125 C 4.019531 -8.5 3.441406 -10.984375 3.328125 -13.734375 C 3.222656 -15.890625 3.460938 -18.546875 4.046875 -21.703125 C 4.640625 -24.867188 5.65625 -27.722656 7.09375 -30.265625 C 8.53125 -32.816406 10.28125 -34.851562 12.34375 -36.375 C 15.132812 -38.4375 18.316406 -39.4375 21.890625 -39.375 C 25.679688 -39.300781 28.671875 -37.988281 30.859375 -35.4375 C 33.046875 -32.882812 34.21875 -29.429688 34.375 -25.078125 C 34.445312 -23.203125 34.253906 -20.820312 33.796875 -17.9375 C 33.347656 -15.0625 32.539062 -12.390625 31.375 -9.921875 C 30.21875 -7.453125 28.738281 -5.378906 26.9375 -3.703125 C 23.8125 -0.785156 20.101562 0.625 15.8125 0.53125 Z M 29.453125 -23.84375 C 29.554688 -27.34375 28.941406 -30.054688 27.609375 -31.984375 C 26.273438 -33.921875 24.289062 -34.925781 21.65625 -35 C 19.269531 -35.0625 17.140625 -34.414062 15.265625 -33.0625 C 13.390625 -31.71875 11.851562 -29.695312 10.65625 -27 C 9.457031 -24.3125 8.695312 -20.90625 8.375 -16.78125 L 8.296875 -15.046875 C 8.191406 -11.554688 8.8125 -8.820312 10.15625 -6.84375 C 11.507812 -4.875 13.476562 -3.851562 16.0625 -3.78125 C 19.414062 -3.695312 22.195312 -4.910156 24.40625 -7.421875 C 26.625 -9.941406 28.097656 -13.476562 28.828125 -18.03125 C 29.179688 -20.269531 29.390625 -22.207031 29.453125 -23.84375 Z M 29.453125 -23.84375 "/></g></g></g><g fill="#38b6ff" fill-opacity="1"><g transform="translate(134.650091, 215.93443)"><g><path d="M 6.9375 0 L 1.953125 0 L 8.6875 -38.828125 L 13.6875 -38.828125 Z M 6.9375 0 "/></g></g></g><g fill="#38b6ff" fill-opacity="1"><g transform="translate(149.317545, 215.93443)"><g><path d="M 23.390625 -10 C 23.785156 -12.84375 22.3125 -14.925781 18.96875 -16.25 L 14.34375 -17.921875 L 12.796875 -18.59375 C 7.609375 -20.957031 5.179688 -24.28125 5.515625 -28.5625 C 5.691406 -30.71875 6.429688 -32.617188 7.734375 -34.265625 C 9.035156 -35.921875 10.753906 -37.195312 12.890625 -38.09375 C 15.035156 -39 17.316406 -39.425781 19.734375 -39.375 C 22.085938 -39.3125 24.179688 -38.78125 26.015625 -37.78125 C 27.859375 -36.789062 29.257812 -35.398438 30.21875 -33.609375 C 31.175781 -31.828125 31.601562 -29.816406 31.5 -27.578125 L 26.453125 -27.609375 C 26.628906 -29.992188 26.09375 -31.835938 24.84375 -33.140625 C 23.601562 -34.441406 21.832031 -35.113281 19.53125 -35.15625 C 17.09375 -35.1875 15.054688 -34.613281 13.421875 -33.4375 C 11.785156 -32.269531 10.84375 -30.671875 10.59375 -28.640625 C 10.238281 -25.992188 11.863281 -23.988281 15.46875 -22.625 L 19.4375 -21.203125 L 21.4375 -20.34375 C 26.457031 -18.039062 28.78125 -14.613281 28.40625 -10.0625 C 28.207031 -7.875 27.46875 -5.984375 26.1875 -4.390625 C 24.90625 -2.796875 23.164062 -1.5625 20.96875 -0.6875 C 18.78125 0.175781 16.421875 0.582031 13.890625 0.53125 C 11.460938 0.507812 9.238281 -0.0078125 7.21875 -1.03125 C 5.195312 -2.050781 3.660156 -3.445312 2.609375 -5.21875 C 1.566406 -7 1.109375 -9.019531 1.234375 -11.28125 L 6.234375 -11.25 C 6.078125 -8.9375 6.707031 -7.097656 8.125 -5.734375 C 9.539062 -4.378906 11.535156 -3.679688 14.109375 -3.640625 C 16.691406 -3.609375 18.816406 -4.171875 20.484375 -5.328125 C 22.148438 -6.484375 23.117188 -8.039062 23.390625 -10 Z M 23.390625 -10 "/></g></g></g><g fill="#38b6ff" fill-opacity="1"><g transform="translate(181.025915, 215.93443)"><g><path d="M 23.390625 -10 C 23.785156 -12.84375 22.3125 -14.925781 18.96875 -16.25 L 14.34375 -17.921875 L 12.796875 -18.59375 C 7.609375 -20.957031 5.179688 -24.28125 5.515625 -28.5625 C 5.691406 -30.71875 6.429688 -32.617188 7.734375 -34.265625 C 9.035156 -35.921875 10.753906 -37.195312 12.890625 -38.09375 C 15.035156 -39 17.316406 -39.425781 19.734375 -39.375 C 22.085938 -39.3125 24.179688 -38.78125 26.015625 -37.78125 C 27.859375 -36.789062 29.257812 -35.398438 30.21875 -33.609375 C 31.175781 -31.828125 31.601562 -29.816406 31.5 -27.578125 L 26.453125 -27.609375 C 26.628906 -29.992188 26.09375 -31.835938 24.84375 -33.140625 C 23.601562 -34.441406 21.832031 -35.113281 19.53125 -35.15625 C 17.09375 -35.1875 15.054688 -34.613281 13.421875 -33.4375 C 11.785156 -32.269531 10.84375 -30.671875 10.59375 -28.640625 C 10.238281 -25.992188 11.863281 -23.988281 15.46875 -22.625 L 19.4375 -21.203125 L 21.4375 -20.34375 C 26.457031 -18.039062 28.78125 -14.613281 28.40625 -10.0625 C 28.207031 -7.875 27.46875 -5.984375 26.1875 -4.390625 C 24.90625 -2.796875 23.164062 -1.5625 20.96875 -0.6875 C 18.78125 0.175781 16.421875 0.582031 13.890625 0.53125 C 11.460938 0.507812 9.238281 -0.0078125 7.21875 -1.03125 C 5.195312 -2.050781 3.660156 -3.445312 2.609375 -5.21875 C 1.566406 -7 1.109375 -9.019531 1.234375 -11.28125 L 6.234375 -11.25 C 6.078125 -8.9375 6.707031 -7.097656 8.125 -5.734375 C 9.539062 -4.378906 11.535156 -3.679688 14.109375 -3.640625 C 16.691406 -3.609375 18.816406 -4.171875 20.484375 -5.328125 C 22.148438 -6.484375 23.117188 -8.039062 23.390625 -10 Z M 23.390625 -10 "/></g></g></g><g fill="#38b6ff" fill-opacity="1"><g transform="translate(212.734285, 215.93443)"><g><path d="M 15.8125 0.53125 C 13.34375 0.476562 11.195312 -0.113281 9.375 -1.25 C 7.550781 -2.382812 6.113281 -4.0625 5.0625 -6.28125 C 4.019531 -8.5 3.441406 -10.984375 3.328125 -13.734375 C 3.222656 -15.890625 3.460938 -18.546875 4.046875 -21.703125 C 4.640625 -24.867188 5.65625 -27.722656 7.09375 -30.265625 C 8.53125 -32.816406 10.28125 -34.851562 12.34375 -36.375 C 15.132812 -38.4375 18.316406 -39.4375 21.890625 -39.375 C 25.679688 -39.300781 28.671875 -37.988281 30.859375 -35.4375 C 33.046875 -32.882812 34.21875 -29.429688 34.375 -25.078125 C 34.445312 -23.203125 34.253906 -20.820312 33.796875 -17.9375 C 33.347656 -15.0625 32.539062 -12.390625 31.375 -9.921875 C 30.21875 -7.453125 28.738281 -5.378906 26.9375 -3.703125 C 23.8125 -0.785156 20.101562 0.625 15.8125 0.53125 Z M 29.453125 -23.84375 C 29.554688 -27.34375 28.941406 -30.054688 27.609375 -31.984375 C 26.273438 -33.921875 24.289062 -34.925781 21.65625 -35 C 19.269531 -35.0625 17.140625 -34.414062 15.265625 -33.0625 C 13.390625 -31.71875 11.851562 -29.695312 10.65625 -27 C 9.457031 -24.3125 8.695312 -20.90625 8.375 -16.78125 L 8.296875 -15.046875 C 8.191406 -11.554688 8.8125 -8.820312 10.15625 -6.84375 C 11.507812 -4.875 13.476562 -3.851562 16.0625 -3.78125 C 19.414062 -3.695312 22.195312 -4.910156 24.40625 -7.421875 C 26.625 -9.941406 28.097656 -13.476562 28.828125 -18.03125 C 29.179688 -20.269531 29.390625 -22.207031 29.453125 -23.84375 Z M 29.453125 -23.84375 "/></g></g></g><g fill="#38b6ff" fill-opacity="1"><g transform="translate(249.429589, 215.93443)"><g><path d="M 30.5625 0 L 25.71875 0 L 11.84375 -30.140625 L 6.609375 0 L 1.578125 0 L 8.328125 -38.828125 L 13.171875 -38.828125 L 27.078125 -8.5625 L 32.328125 -38.828125 L 37.3125 -38.828125 Z M 30.5625 0 "/></g></g></g><g fill="#494747" fill-opacity="1"><g transform="translate(63.956542, 246.719177)"><g><path d="M 1.453125 0 L 3.15625 -10.734375 L 5.109375 -10.734375 L 4.703125 -8.296875 L 4.53125 -8.28125 C 5.082031 -9.082031 5.773438 -9.722656 6.609375 -10.203125 C 7.441406 -10.691406 8.414062 -10.9375 9.53125 -10.9375 C 10.613281 -10.9375 11.484375 -10.710938 12.140625 -10.265625 C 12.804688 -9.828125 13.191406 -9.179688 13.296875 -8.328125 L 13.140625 -8.296875 C 13.710938 -9.097656 14.421875 -9.738281 15.265625 -10.21875 C 16.117188 -10.695312 17.117188 -10.9375 18.265625 -10.9375 C 19.203125 -10.9375 19.976562 -10.765625 20.59375 -10.421875 C 21.21875 -10.085938 21.65625 -9.570312 21.90625 -8.875 C 22.164062 -8.175781 22.207031 -7.269531 22.03125 -6.15625 L 21.078125 0 L 19.03125 0 L 19.984375 -5.984375 C 20.109375 -6.796875 20.101562 -7.4375 19.96875 -7.90625 C 19.832031 -8.375 19.566406 -8.710938 19.171875 -8.921875 C 18.773438 -9.140625 18.253906 -9.25 17.609375 -9.25 C 16.804688 -9.25 16.085938 -9.085938 15.453125 -8.765625 C 14.816406 -8.441406 14.300781 -8.007812 13.90625 -7.46875 C 13.507812 -6.925781 13.265625 -6.320312 13.171875 -5.65625 L 12.265625 0 L 10.25 0 L 11.1875 -5.984375 C 11.320312 -6.796875 11.3125 -7.4375 11.15625 -7.90625 C 11.007812 -8.375 10.738281 -8.710938 10.34375 -8.921875 C 9.945312 -9.140625 9.441406 -9.25 8.828125 -9.25 C 8.234375 -9.25 7.679688 -9.148438 7.171875 -8.953125 C 6.671875 -8.753906 6.222656 -8.492188 5.828125 -8.171875 C 5.429688 -7.847656 5.113281 -7.46875 4.875 -7.03125 C 4.632812 -6.601562 4.476562 -6.148438 4.40625 -5.671875 L 3.484375 0 Z M 1.453125 0 "/></g></g></g><g fill="#494747" fill-opacity="1"><g transform="translate(88.117776, 246.719177)"><g><path d="M 5.515625 0.203125 C 4.523438 0.203125 3.695312 0.0390625 3.03125 -0.28125 C 2.363281 -0.601562 1.882812 -1.035156 1.59375 -1.578125 C 1.300781 -2.117188 1.21875 -2.71875 1.34375 -3.375 C 1.488281 -4.019531 1.816406 -4.550781 2.328125 -4.96875 C 2.847656 -5.394531 3.632812 -5.710938 4.6875 -5.921875 C 5.75 -6.140625 7.171875 -6.25 8.953125 -6.25 L 11.40625 -6.25 L 11.21875 -4.921875 L 8.703125 -4.921875 C 7.378906 -4.921875 6.34375 -4.863281 5.59375 -4.75 C 4.84375 -4.644531 4.300781 -4.460938 3.96875 -4.203125 C 3.644531 -3.953125 3.441406 -3.628906 3.359375 -3.234375 C 3.234375 -2.671875 3.394531 -2.207031 3.84375 -1.84375 C 4.300781 -1.488281 5.003906 -1.3125 5.953125 -1.3125 C 6.753906 -1.3125 7.5 -1.453125 8.1875 -1.734375 C 8.875 -2.023438 9.453125 -2.414062 9.921875 -2.90625 C 10.390625 -3.394531 10.664062 -3.945312 10.75 -4.5625 L 11.125 -6.921875 C 11.269531 -7.765625 11.09375 -8.378906 10.59375 -8.765625 C 10.101562 -9.160156 9.3125 -9.359375 8.21875 -9.359375 C 7.394531 -9.359375 6.5625 -9.25 5.71875 -9.03125 C 4.882812 -8.820312 4.085938 -8.503906 3.328125 -8.078125 L 2.796875 -9.578125 C 3.328125 -9.867188 3.90625 -10.113281 4.53125 -10.3125 C 5.15625 -10.519531 5.800781 -10.675781 6.46875 -10.78125 C 7.144531 -10.882812 7.800781 -10.9375 8.4375 -10.9375 C 9.570312 -10.9375 10.507812 -10.789062 11.25 -10.5 C 12 -10.21875 12.53125 -9.773438 12.84375 -9.171875 C 13.15625 -8.566406 13.238281 -7.773438 13.09375 -6.796875 L 12.03125 0 L 10.140625 0 L 10.53125 -2.46875 L 10.75 -2.5 C 10.4375 -1.988281 10.019531 -1.523438 9.5 -1.109375 C 8.988281 -0.703125 8.398438 -0.378906 7.734375 -0.140625 C 7.078125 0.0859375 6.335938 0.203125 5.515625 0.203125 Z M 5.515625 0.203125 "/></g></g></g><g fill="#494747" fill-opacity="1"><g transform="translate(103.188423, 246.719177)"><g><path d="M 1.40625 0 L 3.109375 -10.734375 L 5.0625 -10.734375 L 4.640625 -8.125 L 4.46875 -8.125 C 4.988281 -9.0625 5.707031 -9.75 6.625 -10.1875 C 7.550781 -10.625 8.597656 -10.875 9.765625 -10.9375 L 10.625 -11 L 10.5 -9.203125 L 8.984375 -9.0625 C 8.140625 -9.007812 7.390625 -8.84375 6.734375 -8.5625 C 6.085938 -8.289062 5.5625 -7.925781 5.15625 -7.46875 C 4.757812 -7.019531 4.507812 -6.507812 4.40625 -5.9375 L 3.46875 0 Z M 1.40625 0 "/></g></g></g><g fill="#494747" fill-opacity="1"><g transform="translate(113.352347, 246.719177)"><g><path d="M 1.359375 0 L 3.828125 -15.4375 L 5.875 -15.4375 L 4.34375 -6 L 4.40625 -6 L 11.1875 -10.734375 L 14.109375 -10.734375 L 5.875 -5.171875 L 5.765625 -6 L 13.03125 0 L 10.296875 0 L 4.25 -4.953125 L 4.1875 -4.953125 L 3.390625 0 Z M 1.359375 0 "/></g></g></g><g fill="#494747" fill-opacity="1"><g transform="translate(127.086795, 246.719177)"><g><path d="M 7.484375 0.203125 C 5.984375 0.203125 4.75 -0.046875 3.78125 -0.546875 C 2.8125 -1.046875 2.128906 -1.75 1.734375 -2.65625 C 1.335938 -3.570312 1.253906 -4.648438 1.484375 -5.890625 C 1.722656 -6.953125 2.175781 -7.859375 2.84375 -8.609375 C 3.519531 -9.367188 4.363281 -9.945312 5.375 -10.34375 C 6.394531 -10.738281 7.523438 -10.9375 8.765625 -10.9375 C 9.941406 -10.9375 10.929688 -10.734375 11.734375 -10.328125 C 12.546875 -9.921875 13.128906 -9.328125 13.484375 -8.546875 C 13.835938 -7.765625 13.9375 -6.785156 13.78125 -5.609375 L 13.6875 -4.90625 L 2.875 -4.90625 L 3.0625 -6.25 L 12.59375 -6.25 L 12.046875 -5.84375 C 12.179688 -6.664062 12.128906 -7.347656 11.890625 -7.890625 C 11.660156 -8.429688 11.269531 -8.832031 10.71875 -9.09375 C 10.175781 -9.351562 9.488281 -9.484375 8.65625 -9.484375 C 7.75 -9.484375 6.929688 -9.328125 6.203125 -9.015625 C 5.472656 -8.703125 4.867188 -8.25 4.390625 -7.65625 C 3.921875 -7.0625 3.613281 -6.34375 3.46875 -5.5 L 3.4375 -5.390625 C 3.289062 -4.523438 3.351562 -3.796875 3.625 -3.203125 C 3.894531 -2.617188 4.375 -2.171875 5.0625 -1.859375 C 5.75 -1.554688 6.640625 -1.40625 7.734375 -1.40625 C 8.617188 -1.40625 9.457031 -1.503906 10.25 -1.703125 C 11.039062 -1.910156 11.769531 -2.234375 12.4375 -2.671875 L 13.015625 -1.265625 C 12.367188 -0.796875 11.550781 -0.429688 10.5625 -0.171875 C 9.582031 0.078125 8.554688 0.203125 7.484375 0.203125 Z M 7.484375 0.203125 "/></g></g></g><g fill="#494747" fill-opacity="1"><g transform="translate(142.069822, 246.719177)"><g><path d="M 6.46875 0.203125 C 5.53125 0.203125 4.742188 0.046875 4.109375 -0.265625 C 3.484375 -0.585938 3.046875 -1.050781 2.796875 -1.65625 C 2.554688 -2.257812 2.5 -3 2.625 -3.875 L 3.46875 -9.203125 L 0.8125 -9.203125 L 1.046875 -10.734375 L 3.765625 -10.734375 L 4.265625 -13.96875 L 6.265625 -13.96875 L 5.765625 -10.734375 L 10.25 -10.734375 L 10.015625 -9.203125 L 5.5 -9.203125 L 4.6875 -4.078125 C 4.539062 -3.128906 4.664062 -2.457031 5.0625 -2.0625 C 5.46875 -1.675781 6.144531 -1.484375 7.09375 -1.484375 C 7.457031 -1.484375 7.8125 -1.507812 8.15625 -1.5625 C 8.5 -1.613281 8.832031 -1.707031 9.15625 -1.84375 L 9.21875 -0.3125 C 8.882812 -0.144531 8.472656 -0.0195312 7.984375 0.0625 C 7.492188 0.15625 6.988281 0.203125 6.46875 0.203125 Z M 6.46875 0.203125 "/></g></g></g><g fill="#494747" fill-opacity="1"><g transform="translate(152.036608, 246.719177)"><g><path d="M 3.28125 -13.34375 L 3.609375 -15.484375 L 6.15625 -15.484375 L 5.8125 -13.34375 Z M 1.421875 0 L 3.125 -10.734375 L 5.171875 -10.734375 L 3.46875 0 Z M 1.421875 0 "/></g></g></g><g fill="#494747" fill-opacity="1"><g transform="translate(158.586213, 246.719177)"><g><path d="M 1.40625 0 L 3.109375 -10.734375 L 5.0625 -10.734375 L 4.671875 -8.28125 L 4.515625 -8.28125 C 5.109375 -9.144531 5.851562 -9.800781 6.75 -10.25 C 7.65625 -10.707031 8.679688 -10.9375 9.828125 -10.9375 C 10.859375 -10.9375 11.707031 -10.765625 12.375 -10.421875 C 13.050781 -10.085938 13.519531 -9.570312 13.78125 -8.875 C 14.050781 -8.175781 14.101562 -7.269531 13.9375 -6.15625 L 12.96875 0 L 10.9375 0 L 11.875 -6.03125 C 12 -6.8125 11.972656 -7.429688 11.796875 -7.890625 C 11.628906 -8.359375 11.320312 -8.703125 10.875 -8.921875 C 10.425781 -9.140625 9.847656 -9.25 9.140625 -9.25 C 8.304688 -9.25 7.546875 -9.085938 6.859375 -8.765625 C 6.171875 -8.441406 5.609375 -8.015625 5.171875 -7.484375 C 4.734375 -6.953125 4.460938 -6.34375 4.359375 -5.65625 L 3.4375 0 Z M 1.40625 0 "/></g></g></g><g fill="#494747" fill-opacity="1"><g transform="translate(174.598782, 246.719177)"><g><path d="M 6.421875 4.140625 C 5.304688 4.140625 4.265625 4.019531 3.296875 3.78125 C 2.328125 3.539062 1.550781 3.15625 0.96875 2.625 L 1.75 1.15625 C 2.175781 1.5 2.644531 1.765625 3.15625 1.953125 C 3.664062 2.148438 4.210938 2.289062 4.796875 2.375 C 5.378906 2.46875 5.992188 2.515625 6.640625 2.515625 C 8.054688 2.515625 9.164062 2.226562 9.96875 1.65625 C 10.78125 1.09375 11.273438 0.269531 11.453125 -0.8125 L 11.78125 -2.9375 L 12.03125 -2.953125 C 11.738281 -2.398438 11.316406 -1.921875 10.765625 -1.515625 C 10.222656 -1.117188 9.601562 -0.8125 8.90625 -0.59375 C 8.207031 -0.382812 7.488281 -0.28125 6.75 -0.28125 C 5.445312 -0.28125 4.363281 -0.53125 3.5 -1.03125 C 2.644531 -1.539062 2.046875 -2.238281 1.703125 -3.125 C 1.367188 -4.019531 1.320312 -5.0625 1.5625 -6.25 C 1.71875 -7.03125 2 -7.710938 2.40625 -8.296875 C 2.8125 -8.878906 3.320312 -9.367188 3.9375 -9.765625 C 4.550781 -10.160156 5.238281 -10.453125 6 -10.640625 C 6.769531 -10.835938 7.597656 -10.9375 8.484375 -10.9375 C 9.628906 -10.9375 10.597656 -10.691406 11.390625 -10.203125 C 12.179688 -9.710938 12.664062 -9.078125 12.84375 -8.296875 L 12.640625 -8.296875 L 13.03125 -10.734375 L 14.984375 -10.734375 L 13.46875 -1.078125 C 13.289062 0.078125 12.898438 1.039062 12.296875 1.8125 C 11.691406 2.59375 10.890625 3.175781 9.890625 3.5625 C 8.898438 3.945312 7.742188 4.140625 6.421875 4.140625 Z M 7.234375 -1.90625 C 8.078125 -1.90625 8.84375 -2.03125 9.53125 -2.28125 C 10.226562 -2.539062 10.8125 -2.929688 11.28125 -3.453125 C 11.75 -3.972656 12.0625 -4.597656 12.21875 -5.328125 C 12.457031 -6.546875 12.242188 -7.515625 11.578125 -8.234375 C 10.910156 -8.953125 9.890625 -9.3125 8.515625 -9.3125 C 7.671875 -9.3125 6.90625 -9.179688 6.21875 -8.921875 C 5.53125 -8.671875 4.957031 -8.289062 4.5 -7.78125 C 4.039062 -7.269531 3.722656 -6.648438 3.546875 -5.921875 C 3.296875 -4.703125 3.503906 -3.726562 4.171875 -3 C 4.835938 -2.269531 5.859375 -1.90625 7.234375 -1.90625 Z M 7.234375 -1.90625 "/></g></g></g><g fill="#494747" fill-opacity="1"><g transform="translate(191.005641, 246.719177)"><g/></g></g><g fill="#494747" fill-opacity="1"><g transform="translate(198.080966, 246.719177)"><g><path d="M 5.515625 0.203125 C 4.523438 0.203125 3.695312 0.0390625 3.03125 -0.28125 C 2.363281 -0.601562 1.882812 -1.035156 1.59375 -1.578125 C 1.300781 -2.117188 1.21875 -2.71875 1.34375 -3.375 C 1.488281 -4.019531 1.816406 -4.550781 2.328125 -4.96875 C 2.847656 -5.394531 3.632812 -5.710938 4.6875 -5.921875 C 5.75 -6.140625 7.171875 -6.25 8.953125 -6.25 L 11.40625 -6.25 L 11.21875 -4.921875 L 8.703125 -4.921875 C 7.378906 -4.921875 6.34375 -4.863281 5.59375 -4.75 C 4.84375 -4.644531 4.300781 -4.460938 3.96875 -4.203125 C 3.644531 -3.953125 3.441406 -3.628906 3.359375 -3.234375 C 3.234375 -2.671875 3.394531 -2.207031 3.84375 -1.84375 C 4.300781 -1.488281 5.003906 -1.3125 5.953125 -1.3125 C 6.753906 -1.3125 7.5 -1.453125 8.1875 -1.734375 C 8.875 -2.023438 9.453125 -2.414062 9.921875 -2.90625 C 10.390625 -3.394531 10.664062 -3.945312 10.75 -4.5625 L 11.125 -6.921875 C 11.269531 -7.765625 11.09375 -8.378906 10.59375 -8.765625 C 10.101562 -9.160156 9.3125 -9.359375 8.21875 -9.359375 C 7.394531 -9.359375 6.5625 -9.25 5.71875 -9.03125 C 4.882812 -8.820312 4.085938 -8.503906 3.328125 -8.078125 L 2.796875 -9.578125 C 3.328125 -9.867188 3.90625 -10.113281 4.53125 -10.3125 C 5.15625 -10.519531 5.800781 -10.675781 6.46875 -10.78125 C 7.144531 -10.882812 7.800781 -10.9375 8.4375 -10.9375 C 9.570312 -10.9375 10.507812 -10.789062 11.25 -10.5 C 12 -10.21875 12.53125 -9.773438 12.84375 -9.171875 C 13.15625 -8.566406 13.238281 -7.773438 13.09375 -6.796875 L 12.03125 0 L 10.140625 0 L 10.53125 -2.46875 L 10.75 -2.5 C 10.4375 -1.988281 10.019531 -1.523438 9.5 -1.109375 C 8.988281 -0.703125 8.398438 -0.378906 7.734375 -0.140625 C 7.078125 0.0859375 6.335938 0.203125 5.515625 0.203125 Z M 5.515625 0.203125 "/></g></g></g><g fill="#494747" fill-opacity="1"><g transform="translate(213.151613, 246.719177)"><g><path d="M 6.421875 4.140625 C 5.304688 4.140625 4.265625 4.019531 3.296875 3.78125 C 2.328125 3.539062 1.550781 3.15625 0.96875 2.625 L 1.75 1.15625 C 2.175781 1.5 2.644531 1.765625 3.15625 1.953125 C 3.664062 2.148438 4.210938 2.289062 4.796875 2.375 C 5.378906 2.46875 5.992188 2.515625 6.640625 2.515625 C 8.054688 2.515625 9.164062 2.226562 9.96875 1.65625 C 10.78125 1.09375 11.273438 0.269531 11.453125 -0.8125 L 11.78125 -2.9375 L 12.03125 -2.953125 C 11.738281 -2.398438 11.316406 -1.921875 10.765625 -1.515625 C 10.222656 -1.117188 9.601562 -0.8125 8.90625 -0.59375 C 8.207031 -0.382812 7.488281 -0.28125 6.75 -0.28125 C 5.445312 -0.28125 4.363281 -0.53125 3.5 -1.03125 C 2.644531 -1.539062 2.046875 -2.238281 1.703125 -3.125 C 1.367188 -4.019531 1.320312 -5.0625 1.5625 -6.25 C 1.71875 -7.03125 2 -7.710938 2.40625 -8.296875 C 2.8125 -8.878906 3.320312 -9.367188 3.9375 -9.765625 C 4.550781 -10.160156 5.238281 -10.453125 6 -10.640625 C 6.769531 -10.835938 7.597656 -10.9375 8.484375 -10.9375 C 9.628906 -10.9375 10.597656 -10.691406 11.390625 -10.203125 C 12.179688 -9.710938 12.664062 -9.078125 12.84375 -8.296875 L 12.640625 -8.296875 L 13.03125 -10.734375 L 14.984375 -10.734375 L 13.46875 -1.078125 C 13.289062 0.078125 12.898438 1.039062 12.296875 1.8125 C 11.691406 2.59375 10.890625 3.175781 9.890625 3.5625 C 8.898438 3.945312 7.742188 4.140625 6.421875 4.140625 Z M 7.234375 -1.90625 C 8.078125 -1.90625 8.84375 -2.03125 9.53125 -2.28125 C 10.226562 -2.539062 10.8125 -2.929688 11.28125 -3.453125 C 11.75 -3.972656 12.0625 -4.597656 12.21875 -5.328125 C 12.457031 -6.546875 12.242188 -7.515625 11.578125 -8.234375 C 10.910156 -8.953125 9.890625 -9.3125 8.515625 -9.3125 C 7.671875 -9.3125 6.90625 -9.179688 6.21875 -8.921875 C 5.53125 -8.671875 4.957031 -8.289062 4.5 -7.78125 C 4.039062 -7.269531 3.722656 -6.648438 3.546875 -5.921875 C 3.296875 -4.703125 3.503906 -3.726562 4.171875 -3 C 4.835938 -2.269531 5.859375 -1.90625 7.234375 -1.90625 Z M 7.234375 -1.90625 "/></g></g></g><g fill="#494747" fill-opacity="1"><g transform="translate(229.558472, 246.719177)"><g><path d="M 7.484375 0.203125 C 5.984375 0.203125 4.75 -0.046875 3.78125 -0.546875 C 2.8125 -1.046875 2.128906 -1.75 1.734375 -2.65625 C 1.335938 -3.570312 1.253906 -4.648438 1.484375 -5.890625 C 1.722656 -6.953125 2.175781 -7.859375 2.84375 -8.609375 C 3.519531 -9.367188 4.363281 -9.945312 5.375 -10.34375 C 6.394531 -10.738281 7.523438 -10.9375 8.765625 -10.9375 C 9.941406 -10.9375 10.929688 -10.734375 11.734375 -10.328125 C 12.546875 -9.921875 13.128906 -9.328125 13.484375 -8.546875 C 13.835938 -7.765625 13.9375 -6.785156 13.78125 -5.609375 L 13.6875 -4.90625 L 2.875 -4.90625 L 3.0625 -6.25 L 12.59375 -6.25 L 12.046875 -5.84375 C 12.179688 -6.664062 12.128906 -7.347656 11.890625 -7.890625 C 11.660156 -8.429688 11.269531 -8.832031 10.71875 -9.09375 C 10.175781 -9.351562 9.488281 -9.484375 8.65625 -9.484375 C 7.75 -9.484375 6.929688 -9.328125 6.203125 -9.015625 C 5.472656 -8.703125 4.867188 -8.25 4.390625 -7.65625 C 3.921875 -7.0625 3.613281 -6.34375 3.46875 -5.5 L 3.4375 -5.390625 C 3.289062 -4.523438 3.351562 -3.796875 3.625 -3.203125 C 3.894531 -2.617188 4.375 -2.171875 5.0625 -1.859375 C 5.75 -1.554688 6.640625 -1.40625 7.734375 -1.40625 C 8.617188 -1.40625 9.457031 -1.503906 10.25 -1.703125 C 11.039062 -1.910156 11.769531 -2.234375 12.4375 -2.671875 L 13.015625 -1.265625 C 12.367188 -0.796875 11.550781 -0.429688 10.5625 -0.171875 C 9.582031 0.078125 8.554688 0.203125 7.484375 0.203125 Z M 7.484375 0.203125 "/></g></g></g><g fill="#494747" fill-opacity="1"><g transform="translate(244.541499, 246.719177)"><g><path d="M 1.40625 0 L 3.109375 -10.734375 L 5.0625 -10.734375 L 4.671875 -8.28125 L 4.515625 -8.28125 C 5.109375 -9.144531 5.851562 -9.800781 6.75 -10.25 C 7.65625 -10.707031 8.679688 -10.9375 9.828125 -10.9375 C 10.859375 -10.9375 11.707031 -10.765625 12.375 -10.421875 C 13.050781 -10.085938 13.519531 -9.570312 13.78125 -8.875 C 14.050781 -8.175781 14.101562 -7.269531 13.9375 -6.15625 L 12.96875 0 L 10.9375 0 L 11.875 -6.03125 C 12 -6.8125 11.972656 -7.429688 11.796875 -7.890625 C 11.628906 -8.359375 11.320312 -8.703125 10.875 -8.921875 C 10.425781 -9.140625 9.847656 -9.25 9.140625 -9.25 C 8.304688 -9.25 7.546875 -9.085938 6.859375 -8.765625 C 6.171875 -8.441406 5.609375 -8.015625 5.171875 -7.484375 C 4.734375 -6.953125 4.460938 -6.34375 4.359375 -5.65625 L 3.4375 0 Z M 1.40625 0 "/></g></g></g><g fill="#494747" fill-opacity="1"><g transform="translate(260.554068, 246.719177)"><g><path d="M 6.9375 0.203125 C 5.613281 0.203125 4.5 -0.0507812 3.59375 -0.5625 C 2.695312 -1.082031 2.0625 -1.804688 1.6875 -2.734375 C 1.320312 -3.660156 1.253906 -4.726562 1.484375 -5.9375 C 1.660156 -6.78125 1.96875 -7.515625 2.40625 -8.140625 C 2.84375 -8.773438 3.382812 -9.296875 4.03125 -9.703125 C 4.6875 -10.109375 5.410156 -10.414062 6.203125 -10.625 C 7.003906 -10.832031 7.835938 -10.9375 8.703125 -10.9375 C 9.617188 -10.9375 10.453125 -10.804688 11.203125 -10.546875 C 11.953125 -10.296875 12.5625 -9.925781 13.03125 -9.4375 L 12.109375 -8 C 11.640625 -8.414062 11.101562 -8.726562 10.5 -8.9375 C 9.894531 -9.15625 9.265625 -9.265625 8.609375 -9.265625 C 7.960938 -9.265625 7.363281 -9.191406 6.8125 -9.046875 C 6.257812 -8.898438 5.753906 -8.671875 5.296875 -8.359375 C 4.847656 -8.054688 4.46875 -7.675781 4.15625 -7.21875 C 3.851562 -6.769531 3.632812 -6.234375 3.5 -5.609375 C 3.25 -4.328125 3.460938 -3.316406 4.140625 -2.578125 C 4.828125 -1.835938 5.847656 -1.46875 7.203125 -1.46875 C 7.921875 -1.46875 8.625 -1.578125 9.3125 -1.796875 C 10.007812 -2.015625 10.664062 -2.335938 11.28125 -2.765625 L 11.921875 -1.296875 C 11.484375 -0.984375 11 -0.710938 10.46875 -0.484375 C 9.945312 -0.265625 9.390625 -0.0976562 8.796875 0.015625 C 8.203125 0.140625 7.582031 0.203125 6.9375 0.203125 Z M 6.9375 0.203125 "/></g></g></g><g fill="#494747" fill-opacity="1"><g transform="translate(273.565644, 246.719177)"><g><path d="M 2.234375 3.9375 L 5.359375 -0.5 L 5.46875 0.5625 L 1.25 -10.734375 L 3.421875 -10.734375 L 6.65625 -1.703125 L 6.3125 -1.703125 L 12.40625 -10.734375 L 14.671875 -10.734375 L 4.5625 3.9375 Z M 2.234375 3.9375 "/></g></g></g></svg>